<svg xmlns="http://www.w3.org/2000/svg" viewBox="0 0 1071.37 487" width="1071.37" height="487" style="background-color: transparent;"><defs><style>@import url('https://fonts.googleapis.com/css2?family=Caveat+Brush&amp;family=Source+Code+Pro&amp;family=Source+Sans+Pro&amp;family=Crimson+Pro&amp;display=block');</style></defs><g><text font-size="48px" font-family="Caveat Brush" font-weight="normal" line-height="48px" letter-spacing="-0.03em" text-align="left" dominant-baseline="mathematical" alignment-baseline="mathematical" text-anchor="start" fill="#1d1d1d" transform="translate(78.41, 23.00) rotate(0.00, 286.50, 29.00)"><tspan y="24px" x="4">Cultura midiática: Relações de poder
</tspan></text><g id="7c729e0b-00ed-41e5-0d5d-71eae8731c77_svg" class="tl-centered-g" transform="translate(65.41, 16.00) rotate(0.00, 299.50, 38.50)"><g pointer-events="none" stroke="#1d1d1d" stroke-width="4.23" stroke-linecap="round"><line x1="2.11" y1="2.11" x2="596.88" y2="2.11" stroke-dasharray="none" stroke-dashoffset="none"/><line x1="596.88" y1="2.11" x2="596.88" y2="74.88" stroke-dasharray="none" stroke-dashoffset="none"/><line x1="596.88" y1="74.88" x2="2.11" y2="74.88" stroke-dasharray="none" stroke-dashoffset="none"/><line x1="2.11" y1="74.88" x2="2.11" y2="2.11" stroke-dasharray="none" stroke-dashoffset="none"/></g></g><g id="f91afe83-b417-48ff-1e96-307455425f10_svg" class="tl-centered-g" transform="translate(661.37, 49.63) rotate(0.00, 24.95, 0.50)"><defs><mask id="f91afe83-b417-48ff-1e96-307455425f10_clip"><rect x="-100" y="-100" width="249.91" height="201" fill="white"/><rect x="24.95" y="0" width="0" height="0" rx="2" ry="2" fill="black" opacity="1"/></mask></defs><g pointer-events="none" opacity="1" mask=""><path d="M0,0L49.91,0" fill="#1d1d1d" stroke="#1d1d1d" stroke-width="4.23" stroke-dasharray="none" stroke-dashoffset="none" stroke-linecap="round" stroke-linejoin="round" pointer-events="stroke"/></g></g><g id="09e8530d-1a85-46b6-0d1f-4a1de396110b_svg" class="tl-centered-g" transform="translate(688.28, 49.94) rotate(0.00, 11.49, 19.90)"><defs><mask id="09e8530d-1a85-46b6-0d1f-4a1de396110b_clip"><rect x="-100" y="-100" width="222.98" height="239.8" fill="white"/><rect x="11.49" y="19.9" width="0" height="0" rx="2" ry="2" fill="black" opacity="1"/></mask></defs><g pointer-events="none" opacity="1" mask=""><path d="M22.98,0L0,39.8" fill="#1d1d1d" stroke="#1d1d1d" stroke-width="4.23" stroke-dasharray="none" stroke-dashoffset="none" stroke-linecap="round" stroke-linejoin="round" pointer-events="stroke"/></g></g><g id="02778e37-0a0d-49c8-2744-c3911c52a5a0_svg" class="tl-centered-g" transform="translate(16.00, 50.57) rotate(0.00, 24.95, 0.50)"><defs><mask id="02778e37-0a0d-49c8-2744-c3911c52a5a0_clip"><rect x="-100" y="-100" width="249.91" height="201" fill="white"/><rect x="24.95" y="0" width="0" height="0" rx="2" ry="2" fill="black" opacity="1"/></mask></defs><g pointer-events="none" opacity="1" mask=""><path d="M49.91,0L0,0" fill="#1d1d1d" stroke="#1d1d1d" stroke-width="4.23" stroke-dasharray="none" stroke-dashoffset="none" stroke-linecap="round" stroke-linejoin="round" pointer-events="stroke"/></g></g><g id="973e5226-db8c-4f5c-3538-109d9ed1cafd_svg" class="tl-centered-g" transform="translate(687.55, 89.67) rotate(0.00, 12.01, 17.25)"><defs><mask id="973e5226-db8c-4f5c-3538-109d9ed1cafd_clip"><rect x="-100" y="-100" width="224.02" height="234.5" fill="white"/><rect x="12.01" y="17.25" width="0" height="0" rx="2" ry="2" fill="black" opacity="1"/></mask></defs><g pointer-events="none" opacity="1" mask=""><path d="M0,0L24.02,34.5" fill="#1d1d1d" stroke="#1d1d1d" stroke-width="4.23" stroke-dasharray="none" stroke-dashoffset="none" stroke-linecap="round" stroke-linejoin="round" pointer-events="stroke"/></g></g><g id="c974dcae-b338-406d-02bb-c68737f84c45_svg" class="tl-centered-g" transform="translate(16.76, 85.16) rotate(0.00, 11.49, 19.90)"><defs><mask id="c974dcae-b338-406d-02bb-c68737f84c45_clip"><rect x="-100" y="-100" width="222.98" height="239.8" fill="white"/><rect x="11.49" y="19.9" width="0" height="0" rx="2" ry="2" fill="black" opacity="1"/></mask></defs><g pointer-events="none" opacity="1" mask=""><path d="M0,39.8L22.98,0" fill="#1d1d1d" stroke="#1d1d1d" stroke-width="4.23" stroke-dasharray="none" stroke-dashoffset="none" stroke-linecap="round" stroke-linejoin="round" pointer-events="stroke"/></g></g><g id="3603d5b6-c3d9-4562-0a67-bb9d9b2baf98_svg" class="tl-centered-g" transform="translate(634.62, 124.79) rotate(0.00, 38.50, 0.50)"><defs><mask id="3603d5b6-c3d9-4562-0a67-bb9d9b2baf98_clip"><rect x="-100" y="-100" width="277" height="201" fill="white"/><rect x="38.5" y="0" width="0" height="0" rx="2.40" ry="2.40" fill="black" opacity="1"/></mask></defs><g pointer-events="none" opacity="1" mask=""><path d="M77,0L0,0" fill="#1d1d1d" stroke="#1d1d1d" stroke-width="4.23" stroke-dasharray="none" stroke-dashoffset="none" stroke-linecap="round" stroke-linejoin="round" pointer-events="stroke"/></g></g><g id="3f7c87fd-6da4-4736-111c-1722be5dc062_svg" class="tl-centered-g" transform="translate(16.46, 50.72) rotate(0.00, 12.01, 17.25)"><defs><mask id="3f7c87fd-6da4-4736-111c-1722be5dc062_clip"><rect x="-100" y="-100" width="224.02" height="234.5" fill="white"/><rect x="12.01" y="17.25" width="0" height="0" rx="2" ry="2" fill="black" opacity="1"/></mask></defs><g pointer-events="none" opacity="1" mask=""><path d="M24.02,34.5L0,0" fill="#1d1d1d" stroke="#1d1d1d" stroke-width="4.23" stroke-dasharray="none" stroke-dashoffset="none" stroke-linecap="round" stroke-linejoin="round" pointer-events="stroke"/></g></g><g id="0619ac82-7a4e-429a-19f8-b2ad03d2d733_svg" class="tl-centered-g" transform="translate(633.39, 92.76) rotate(0.00, 0.50, 16.02)"><g opacity="1"><path d="M0.31,31.72 Q0.31,29.79 0.31,28.57 T0.31,25.98 0.31,23.52 0.31,21.47 0.31,19.72 0.31,18.27 0.31,17.05 0.31,15.90 0.31,14.78 0.31,13.75 0.31,12.69 0.31,11.70 0.31,10.80 0.31,9.90 0.31,8.91 0.31,7.61 0.31,6.13 0.31,4.83 0.31,3.84 0.31,3.15 0.31,2.57 0.31,2.04 0.31,1.61 0.31,1.23 0.31,0.88 0.31,0.56 0.31,0.37 0.31,0.64 0.31,0.92 " fill="none" stroke="none" stroke-width="4" stroke-linejoin="round" stroke-linecap="round" pointer-events="none"/><path d="M0.31,31.72 Q0.31,29.79 0.31,28.57 T0.31,25.98 0.31,23.52 0.31,21.47 0.31,19.72 0.31,18.27 0.31,17.05 0.31,15.90 0.31,14.78 0.31,13.75 0.31,12.69 0.31,11.70 0.31,10.80 0.31,9.90 0.31,8.91 0.31,7.61 0.31,6.13 0.31,4.83 0.31,3.84 0.31,3.15 0.31,2.57 0.31,2.04 0.31,1.61 0.31,1.23 0.31,0.88 0.31,0.56 0.31,0.37 0.31,0.64 0.31,0.92 " fill="none" stroke="#1d1d1d" stroke-width="4" stroke-dasharray="none" stroke-dashoffset="none" stroke-linejoin="round" stroke-linecap="round" pointer-events="none"/></g></g><g id="9f4f21f7-c4f5-4d68-3870-d24f9283bb25_svg" class="tl-centered-g" transform="translate(17.15, 125.01) rotate(0.00, 38.50, 0.50)"><defs><mask id="9f4f21f7-c4f5-4d68-3870-d24f9283bb25_clip"><rect x="-100" y="-100" width="277" height="201" fill="white"/><rect x="38.5" y="0" width="0" height="0" rx="2.40" ry="2.40" fill="black" opacity="1"/></mask></defs><g pointer-events="none" opacity="1" mask=""><path d="M0,0L77,0" fill="#1d1d1d" stroke="#1d1d1d" stroke-width="4.23" stroke-dasharray="none" stroke-dashoffset="none" stroke-linecap="round" stroke-linejoin="round" pointer-events="stroke"/></g></g><g id="0c455879-495c-44de-27cd-5c1272349e3b_svg" class="tl-centered-g" transform="translate(633.39, 93.00) rotate(0.00, 13.96, 14.81)"><defs><mask id="0c455879-495c-44de-27cd-5c1272349e3b_clip"><rect x="-100" y="-100" width="227.91" height="229.63" fill="white"/><rect x="13.95" y="14.81" width="0" height="0" rx="2" ry="2" fill="black" opacity="1"/></mask></defs><g pointer-events="none" opacity="1" mask=""><path d="M0,29.63L27.91,0" fill="#1d1d1d" stroke="#1d1d1d" stroke-width="4.23" stroke-dasharray="none" stroke-dashoffset="none" stroke-linecap="round" stroke-linejoin="round" pointer-events="stroke"/></g></g><g id="1d37f4de-9b1d-4c46-2c6c-3ed19a9157bd_svg" class="tl-centered-g" transform="translate(94.31, 91.96) rotate(180.00, 0.50, 16.02)"><g opacity="1"><path d="M0.31,31.72 Q0.31,29.79 0.31,28.57 T0.31,25.98 0.31,23.52 0.31,21.47 0.31,19.72 0.31,18.27 0.31,17.05 0.31,15.90 0.31,14.78 0.31,13.75 0.31,12.69 0.31,11.70 0.31,10.80 0.31,9.90 0.31,8.91 0.31,7.61 0.31,6.13 0.31,4.83 0.31,3.84 0.31,3.15 0.31,2.57 0.31,2.04 0.31,1.61 0.31,1.23 0.31,0.88 0.31,0.56 0.31,0.37 0.31,0.64 0.31,0.92 " fill="none" stroke="none" stroke-width="4" stroke-linejoin="round" stroke-linecap="round" pointer-events="none"/><path d="M0.31,31.72 Q0.31,29.79 0.31,28.57 T0.31,25.98 0.31,23.52 0.31,21.47 0.31,19.72 0.31,18.27 0.31,17.05 0.31,15.90 0.31,14.78 0.31,13.75 0.31,12.69 0.31,11.70 0.31,10.80 0.31,9.90 0.31,8.91 0.31,7.61 0.31,6.13 0.31,4.83 0.31,3.84 0.31,3.15 0.31,2.57 0.31,2.04 0.31,1.61 0.31,1.23 0.31,0.88 0.31,0.56 0.31,0.37 0.31,0.64 0.31,0.92 " fill="none" stroke="#1d1d1d" stroke-width="4" stroke-dasharray="none" stroke-dashoffset="none" stroke-linejoin="round" stroke-linecap="round" pointer-events="none"/></g></g><g id="f3b7d961-fdf8-4d67-03de-2124326a6ceb_svg" class="tl-centered-g" transform="translate(67.54, 93.00) rotate(0.00, 13.79, 15.68)"><defs><mask id="f3b7d961-fdf8-4d67-03de-2124326a6ceb_clip"><rect x="-100" y="-100" width="227.57" height="231.35" fill="white"/><rect x="13.79" y="15.67" width="0" height="0" rx="2" ry="2" fill="black" opacity="1"/></mask></defs><g pointer-events="none" opacity="1" mask=""><path d="M0,0L27.58,31.35" fill="#1d1d1d" stroke="#1d1d1d" stroke-width="4.23" stroke-dasharray="none" stroke-dashoffset="none" stroke-linecap="round" stroke-linejoin="round" pointer-events="stroke"/></g></g><g id="68b2eb1a-e940-49b6-2a8e-8859ebc037a6_svg" class="tl-centered-g" transform="translate(70.01, 91.52) rotate(0.00, 11.30, 13.20)"><g opacity="1"><path d="M1.00,2.00 Q1.90,2.72 1.96,2.56 T1.93,2.22 1.70,1.94 1.47,1.92 1.35,2.23 1.46,2.98 1.84,3.97 2.27,4.74 2.69,5.13 3.05,4.94 3.25,4.20 3.18,3.22 2.79,2.23 2.21,1.50 1.62,1.19 1.17,1.37 0.96,2.19 1.11,3.40 1.82,4.48 3.07,4.67 4.15,3.96 4.58,3.18 4.50,2.56 4.10,2.09 3.56,1.82 3.04,1.95 2.89,2.78 3.21,3.95 3.96,4.87 5.32,5.24 6.79,5.00 7.73,4.33 8.03,3.47 7.79,2.68 7.04,2.06 6.04,1.76 5.21,2.23 4.80,3.38 4.94,4.64 5.64,5.74 6.74,6.39 8.06,6.26 9.20,5.56 9.74,4.73 9.63,3.78 8.81,2.89 7.78,2.49 7.07,3.08 6.77,4.21 6.87,5.28 7.33,6.32 8.21,7.07 9.51,7.17 10.85,6.42 11.81,5.21 12.21,3.91 11.58,2.61 10.20,1.75 8.99,1.68 8.19,2.23 7.97,3.29 8.39,4.55 9.24,5.56 10.48,6.11 11.83,6.15 12.94,5.77 13.68,5.07 13.96,4.10 13.62,2.94 12.80,1.93 11.91,1.47 11.19,1.75 10.79,2.62 10.75,3.69 11.09,4.72 11.76,5.52 12.85,5.91 14.26,5.55 15.40,4.59 15.71,3.38 15.17,2.23 14.24,1.59 13.33,1.86 12.82,3.04 13.26,4.59 14.35,5.85 15.54,6.36 16.77,5.75 17.68,4.43 17.91,3.21 17.50,2.18 16.70,1.56 15.89,1.85 15.40,2.85 15.49,4.04 16.03,5.10 16.82,5.68 17.71,5.73 18.55,5.32 19.25,4.37 19.63,3.13 19.62,2.00 19.03,1.15 18.12,1.08 17.62,2.21 17.61,3.68 17.87,4.85 18.47,5.77 19.42,6.05 20.49,5.63 21.30,4.76 21.79,3.66 21.88,2.52 21.53,1.52 20.85,0.84 19.98,0.69 19.49,1.90 19.50,3.78 19.68,5.04 20.22,5.65 21.02,5.36 21.68,4.48 22.09,3.42 22.23,2.42 21.99,1.92 21.55,2.18 21.08,3.58 20.60,6.32 20.20,9.75 19.93,13.22 19.83,16.43 19.86,18.92 20.01,20.57 20.28,21.39 20.64,21.21 21.03,20.22 21.19,19.41 21.15,19.36 21.08,19.91 21.09,20.85 21.18,21.72 21.33,22.43 21.49,23.00 21.68,23.45 21.87,23.92 22.02,24.36 22.14,24.69 22.26,24.96 22.32,25.20 22.36,25.52 22.38,25.87 22.34,26.06 22.19,25.76 21.97,24.53 21.80,22.28 21.67,19.47 21.55,15.90 21.48,12.55 21.49,10.51 21.58,9.39 21.77,9.62 21.96,11.27 22.07,13.56 22.08,16.04 22.00,18.30 21.91,19.96 21.91,20.74 21.86,19.20 21.61,15.89 21.29,13.03 21.03,11.05 20.66,10.76 20.32,12.39 20.27,14.76 20.42,17.11 20.63,19.03 20.84,20.40 21.00,21.34 21.05,21.86 20.94,22.06 20.74,22.12 20.59,22.20 20.46,22.33 20.34,22.50 20.28,22.68 20.20,22.78 19.98,22.65 19.58,22.32 18.92,21.59 17.97,20.43 16.82,18.99 15.25,16.98 13.57,14.75 12.33,12.98 11.51,11.65 10.97,10.69 10.76,10.42 11.49,11.62 13.29,14.12 15.22,16.53 16.46,17.90 15.99,17.32 13.53,14.31 10.97,11.00 10.40,10.37 11.56,12.04 12.88,13.77 13.92,14.95 14.40,15.37 13.82,14.67 12.24,12.94 10.30,10.91 8.69,9.34 7.62,8.47 7.16,8.39 7.54,9.29 8.55,10.82 9.56,12.20 10.29,13.09 10.61,13.19 9.71,11.76 8.18,9.72 7.12,8.32 6.53,7.51 6.69,7.50 8.35,9.20 10.92,11.93 13.06,14.02 14.02,14.41 13.29,12.62 11.69,9.70 10.75,7.87 11.31,8.60 12.78,11.06 14.45,13.85 15.99,16.20 16.94,17.23 16.79,16.23 15.76,13.80 14.44,11.03 13.30,8.73 12.63,7.29 12.88,7.69 14.01,9.98 15.44,12.94 16.72,15.56 17.52,17.10 17.96,17.64 17.39,15.56 16.14,11.82 15.27,9.13 14.79,7.50 14.66,6.83 15.08,7.62 16.16,10.39 17.34,13.66 18.13,15.56 18.38,15.49 18.12,13.79 17.58,11.20 17.05,8.60 16.80,6.81 16.94,6.18 17.55,7.62 18.38,10.48 19.10,13.17 19.68,15.15 20.00,15.58 19.73,13.71 19.18,11.06 18.79,9.02 18.61,7.85 18.83,8.99 19.26,11.90 19.59,14.36 19.78,15.86 19.88,15.88 19.84,14.23 19.69,11.67 19.56,9.26 19.49,7.67 19.54,6.79 19.88,7.78 20.34,10.92 20.63,14.00 20.80,15.61 20.66,14.80 20.32,12.43 20.09,10.58 20.23,10.63 20.62,12.41 20.92,14.19 21.18,15.36 21.41,15.29 21.50,14.04 21.36,12.46 21.20,11.45 21.20,11.34 21.29,11.77 21.36,12.93 21.40,13.80 " fill="none" stroke="none" stroke-width="4" stroke-linejoin="round" stroke-linecap="round" pointer-events="none"/><path d="M1.00,2.00 Q1.90,2.72 1.96,2.56 T1.93,2.22 1.70,1.94 1.47,1.92 1.35,2.23 1.46,2.98 1.84,3.97 2.27,4.74 2.69,5.13 3.05,4.94 3.25,4.20 3.18,3.22 2.79,2.23 2.21,1.50 1.62,1.19 1.17,1.37 0.96,2.19 1.11,3.40 1.82,4.48 3.07,4.67 4.15,3.96 4.58,3.18 4.50,2.56 4.10,2.09 3.56,1.82 3.04,1.95 2.89,2.78 3.21,3.95 3.96,4.87 5.32,5.24 6.79,5.00 7.73,4.33 8.03,3.47 7.79,2.68 7.04,2.06 6.04,1.76 5.21,2.23 4.80,3.38 4.94,4.64 5.64,5.74 6.74,6.39 8.06,6.26 9.20,5.56 9.74,4.73 9.63,3.78 8.81,2.89 7.78,2.49 7.07,3.08 6.77,4.21 6.87,5.28 7.33,6.32 8.21,7.07 9.51,7.17 10.85,6.42 11.81,5.21 12.21,3.91 11.58,2.61 10.20,1.75 8.99,1.68 8.19,2.23 7.97,3.29 8.39,4.55 9.24,5.56 10.48,6.11 11.83,6.15 12.94,5.77 13.68,5.07 13.96,4.10 13.62,2.94 12.80,1.93 11.91,1.47 11.19,1.75 10.79,2.62 10.75,3.69 11.09,4.72 11.76,5.52 12.85,5.91 14.26,5.55 15.40,4.59 15.71,3.38 15.17,2.23 14.24,1.59 13.33,1.86 12.82,3.04 13.26,4.59 14.35,5.85 15.54,6.36 16.77,5.75 17.68,4.43 17.91,3.21 17.50,2.18 16.70,1.56 15.89,1.85 15.40,2.85 15.49,4.04 16.03,5.10 16.82,5.68 17.71,5.73 18.55,5.32 19.25,4.37 19.63,3.13 19.62,2.00 19.03,1.15 18.12,1.08 17.62,2.21 17.61,3.68 17.87,4.85 18.47,5.77 19.42,6.05 20.49,5.63 21.30,4.76 21.79,3.66 21.88,2.52 21.53,1.52 20.85,0.84 19.98,0.69 19.49,1.90 19.50,3.78 19.68,5.04 20.22,5.65 21.02,5.36 21.68,4.48 22.09,3.42 22.23,2.42 21.99,1.92 21.55,2.18 21.08,3.58 20.60,6.32 20.20,9.75 19.93,13.22 19.83,16.43 19.86,18.92 20.01,20.57 20.28,21.39 20.64,21.21 21.03,20.22 21.19,19.41 21.15,19.36 21.08,19.91 21.09,20.85 21.18,21.72 21.33,22.43 21.49,23.00 21.68,23.45 21.87,23.92 22.02,24.36 22.14,24.69 22.26,24.96 22.32,25.20 22.36,25.52 22.38,25.87 22.34,26.06 22.19,25.76 21.97,24.53 21.80,22.28 21.67,19.47 21.55,15.90 21.48,12.55 21.49,10.51 21.58,9.39 21.77,9.62 21.96,11.27 22.07,13.56 22.08,16.04 22.00,18.30 21.91,19.96 21.91,20.74 21.86,19.20 21.61,15.89 21.29,13.03 21.03,11.05 20.66,10.76 20.32,12.39 20.27,14.76 20.42,17.11 20.63,19.03 20.84,20.40 21.00,21.34 21.05,21.86 20.94,22.06 20.74,22.12 20.59,22.20 20.46,22.33 20.34,22.50 20.28,22.68 20.20,22.78 19.98,22.65 19.58,22.32 18.92,21.59 17.97,20.43 16.82,18.99 15.25,16.98 13.57,14.75 12.33,12.98 11.51,11.65 10.97,10.69 10.76,10.42 11.49,11.62 13.29,14.12 15.22,16.53 16.46,17.90 15.99,17.32 13.53,14.31 10.97,11.00 10.40,10.37 11.56,12.04 12.88,13.77 13.92,14.95 14.40,15.37 13.82,14.67 12.24,12.94 10.30,10.91 8.69,9.34 7.62,8.47 7.16,8.39 7.54,9.29 8.55,10.82 9.56,12.20 10.29,13.09 10.61,13.19 9.71,11.76 8.18,9.72 7.12,8.32 6.53,7.51 6.69,7.50 8.35,9.20 10.92,11.93 13.06,14.02 14.02,14.41 13.29,12.62 11.69,9.70 10.75,7.87 11.31,8.60 12.78,11.06 14.45,13.85 15.99,16.20 16.94,17.23 16.79,16.23 15.76,13.80 14.44,11.03 13.30,8.73 12.63,7.29 12.88,7.69 14.01,9.98 15.44,12.94 16.72,15.56 17.52,17.10 17.96,17.64 17.39,15.56 16.14,11.82 15.27,9.13 14.79,7.50 14.66,6.83 15.08,7.62 16.16,10.39 17.34,13.66 18.13,15.56 18.38,15.49 18.12,13.79 17.58,11.20 17.05,8.60 16.80,6.81 16.94,6.18 17.55,7.62 18.38,10.48 19.10,13.17 19.68,15.15 20.00,15.58 19.73,13.71 19.18,11.06 18.79,9.02 18.61,7.85 18.83,8.99 19.26,11.90 19.59,14.36 19.78,15.86 19.88,15.88 19.84,14.23 19.69,11.67 19.56,9.26 19.49,7.67 19.54,6.79 19.88,7.78 20.34,10.92 20.63,14.00 20.80,15.61 20.66,14.80 20.32,12.43 20.09,10.58 20.23,10.63 20.62,12.41 20.92,14.19 21.18,15.36 21.41,15.29 21.50,14.04 21.36,12.46 21.20,11.45 21.20,11.34 21.29,11.77 21.36,12.93 21.40,13.80 " fill="none" stroke="#1d1d1d" stroke-width="4" stroke-dasharray="none" stroke-dashoffset="none" stroke-linejoin="round" stroke-linecap="round" pointer-events="none"/></g></g><g id="b4174514-9baf-4358-3a6b-eff05e1096f5_svg" class="tl-centered-g" transform="translate(92.56, 97.26) rotate(0.00, 0.50, 3.66)"><g opacity="1"><path d="M0.78,3.14 Q0.66,1.73 0.63,1.47 T0.64,1.75 0.70,3.13 0.68,4.65 0.61,5.79 0.57,6.06 0.49,5.52 0.33,4.45 0.18,3.16 0.10,2.10 0.06,1.46 0.15,1.63 0.31,2.42 0.41,3.15 0.48,2.51 0.52,1.57 " fill="none" stroke="none" stroke-width="4" stroke-linejoin="round" stroke-linecap="round" pointer-events="none"/><path d="M0.78,3.14 Q0.66,1.73 0.63,1.47 T0.64,1.75 0.70,3.13 0.68,4.65 0.61,5.79 0.57,6.06 0.49,5.52 0.33,4.45 0.18,3.16 0.10,2.10 0.06,1.46 0.15,1.63 0.31,2.42 0.41,3.15 0.48,2.51 0.52,1.57 " fill="none" stroke="#1d1d1d" stroke-width="4" stroke-dasharray="none" stroke-dashoffset="none" stroke-linejoin="round" stroke-linecap="round" pointer-events="none"/></g></g><g id="4913f1cc-2f26-489c-2d11-706eaada9ed9_svg" class="tl-centered-g" transform="translate(634.81, 92.16) rotate(0.00, 11.90, 13.00)"><g opacity="1"><path d="M3.40,13.00 Q2.86,15.24 2.80,15.90 T2.85,16.66 3.05,16.10 3.21,14.40 3.20,12.30 2.98,10.24 2.67,8.61 2.37,7.62 2.03,7.52 1.70,8.77 1.48,10.53 1.53,11.95 1.97,12.82 2.56,12.81 3.03,11.55 3.10,9.29 2.88,7.15 2.62,5.56 2.43,4.46 2.24,3.99 2.00,4.08 1.77,4.49 1.61,5.03 1.47,5.51 1.35,5.64 1.28,5.40 1.20,4.95 1.11,4.44 1.06,3.84 1.03,3.06 1.02,2.18 0.97,1.43 0.89,0.92 0.90,0.60 0.94,0.38 1.10,0.21 1.46,0.16 1.92,0.18 2.45,0.19 2.97,0.19 3.52,0.29 4.14,0.43 4.79,0.50 5.42,0.59 5.95,0.68 6.37,0.74 6.70,0.76 7.06,0.78 7.43,0.79 7.78,0.79 8.19,0.80 8.69,0.80 9.32,0.80 9.98,0.80 10.53,0.80 11.01,0.80 11.68,0.76 12.45,0.69 13.10,0.65 13.72,0.63 14.34,0.61 15.04,0.56 15.83,0.49 16.58,0.45 17.26,0.43 17.86,0.37 18.41,0.29 18.94,0.25 19.51,0.23 20.09,0.17 20.63,0.09 21.15,0.05 21.71,0.03 22.24,0.02 22.67,0.05 23.04,0.12 23.34,0.16 23.50,0.26 23.41,0.50 23.09,0.77 22.69,1.05 22.29,1.39 21.89,1.75 21.49,2.13 21.09,2.52 20.65,2.96 20.13,3.38 19.67,3.75 19.28,4.13 18.89,4.52 18.53,4.87 18.21,5.20 17.89,5.51 17.58,5.77 17.23,6.10 16.90,6.46 16.59,6.79 16.24,7.20 15.91,7.60 15.64,7.96 15.31,8.34 14.95,8.68 14.66,9.09 14.36,9.59 14.02,10.04 13.61,10.47 13.20,10.89 12.80,11.38 12.31,11.93 11.86,12.41 11.47,12.85 11.04,13.28 10.53,13.73 10.02,14.17 9.52,14.58 8.93,15.04 8.29,15.47 7.71,15.89 7.17,16.29 6.69,16.66 6.34,16.94 6.01,17.19 5.51,17.60 4.97,18.09 4.58,18.45 4.23,18.83 3.86,19.31 3.52,19.80 3.20,20.38 2.80,21.11 2.35,21.82 1.97,22.39 1.67,22.84 1.41,23.23 1.18,23.57 0.97,23.90 0.76,24.17 0.55,24.41 0.40,24.63 0.31,24.88 0.21,25.16 0.12,25.40 0.07,25.62 0.04,25.75 0.02,25.64 0.01,25.31 0.01,24.81 0.09,24.00 0.28,22.93 0.47,21.80 0.70,20.46 0.93,19.04 1.09,17.64 1.28,15.96 1.47,14.32 1.66,13.02 1.81,11.85 1.94,10.75 2.06,9.65 2.12,8.56 2.16,7.64 2.18,6.77 2.19,5.98 2.24,5.41 2.31,4.96 2.40,4.57 2.53,4.27 2.70,3.97 2.88,3.67 3.07,3.42 3.31,3.18 3.57,3.01 3.85,2.92 4.19,2.82 4.64,2.68 5.20,2.55 5.74,2.44 6.26,2.33 6.86,2.27 7.50,2.24 8.13,2.27 8.70,2.33 9.24,2.36 9.85,2.38 10.50,2.39 11.12,2.39 11.74,2.40 12.57,2.35 13.52,2.28 14.36,2.25 15.14,2.23 15.88,2.26 16.52,2.32 16.96,2.40 17.16,2.58 17.09,2.81 16.82,3.21 16.41,3.83 15.91,4.53 15.33,5.32 14.69,6.07 13.98,6.76 13.18,7.49 12.43,8.26 11.66,9.13 10.83,10.10 9.96,11.13 9.17,12.10 8.51,13.00 7.84,13.94 7.24,14.77 6.77,15.41 6.38,15.85 6.03,15.96 5.70,15.71 5.34,14.72 4.92,12.79 4.60,10.69 4.42,8.95 4.37,7.63 4.38,6.77 4.43,6.15 4.69,5.64 5.19,5.22 6.22,4.81 7.87,4.40 9.67,4.09 11.16,3.87 12.16,3.75 12.81,3.77 13.07,4.05 12.99,4.83 12.73,5.98 12.31,7.33 11.86,8.66 11.52,9.62 11.29,10.28 11.16,10.74 10.95,11.12 10.57,11.52 9.69,11.91 8.44,12.22 7.44,12.43 6.75,12.55 6.32,12.48 6.05,12.18 5.80,11.25 5.58,9.93 5.36,8.75 5.25,7.83 5.27,7.28 5.55,6.89 6.11,6.53 6.78,6.25 7.59,6.05 8.49,5.89 9.21,5.76 9.61,5.91 9.74,6.40 9.77,7.12 9.74,8.05 9.59,8.83 9.19,9.18 8.57,9.19 8.00,9.10 7.55,9.01 7.17,8.92 6.96,8.82 6.96,8.38 7.00,8.00 " fill="none" stroke="none" stroke-width="4" stroke-linejoin="round" stroke-linecap="round" pointer-events="none"/><path d="M3.40,13.00 Q2.86,15.24 2.80,15.90 T2.85,16.66 3.05,16.10 3.21,14.40 3.20,12.30 2.98,10.24 2.67,8.61 2.37,7.62 2.03,7.52 1.70,8.77 1.48,10.53 1.53,11.95 1.97,12.82 2.56,12.81 3.03,11.55 3.10,9.29 2.88,7.15 2.62,5.56 2.43,4.46 2.24,3.99 2.00,4.08 1.77,4.49 1.61,5.03 1.47,5.51 1.35,5.64 1.28,5.40 1.20,4.95 1.11,4.44 1.06,3.84 1.03,3.06 1.02,2.18 0.97,1.43 0.89,0.92 0.90,0.60 0.94,0.38 1.10,0.21 1.46,0.16 1.92,0.18 2.45,0.19 2.97,0.19 3.52,0.29 4.14,0.43 4.79,0.50 5.42,0.59 5.95,0.68 6.37,0.74 6.70,0.76 7.06,0.78 7.43,0.79 7.78,0.79 8.19,0.80 8.69,0.80 9.32,0.80 9.98,0.80 10.53,0.80 11.01,0.80 11.68,0.76 12.45,0.69 13.10,0.65 13.72,0.63 14.34,0.61 15.04,0.56 15.83,0.49 16.58,0.45 17.26,0.43 17.86,0.37 18.41,0.29 18.94,0.25 19.51,0.23 20.09,0.17 20.63,0.09 21.15,0.05 21.71,0.03 22.24,0.02 22.67,0.05 23.04,0.12 23.34,0.16 23.50,0.26 23.41,0.50 23.09,0.77 22.69,1.05 22.29,1.39 21.89,1.75 21.49,2.13 21.09,2.52 20.65,2.96 20.13,3.38 19.67,3.75 19.28,4.13 18.89,4.52 18.53,4.87 18.21,5.20 17.89,5.51 17.58,5.77 17.23,6.10 16.90,6.46 16.59,6.79 16.24,7.20 15.91,7.60 15.64,7.96 15.31,8.34 14.95,8.68 14.66,9.09 14.36,9.59 14.02,10.04 13.61,10.47 13.20,10.89 12.80,11.38 12.31,11.93 11.86,12.41 11.47,12.85 11.04,13.28 10.53,13.73 10.02,14.17 9.52,14.58 8.93,15.04 8.29,15.47 7.71,15.89 7.17,16.29 6.69,16.66 6.34,16.94 6.01,17.19 5.51,17.60 4.97,18.09 4.58,18.45 4.23,18.83 3.86,19.31 3.52,19.80 3.20,20.38 2.80,21.11 2.35,21.82 1.97,22.39 1.67,22.84 1.41,23.23 1.18,23.57 0.97,23.90 0.76,24.17 0.55,24.41 0.40,24.63 0.31,24.88 0.21,25.16 0.12,25.40 0.07,25.62 0.04,25.75 0.02,25.64 0.01,25.31 0.01,24.81 0.09,24.00 0.28,22.93 0.47,21.80 0.70,20.46 0.93,19.04 1.09,17.64 1.28,15.96 1.47,14.32 1.66,13.02 1.81,11.85 1.94,10.75 2.06,9.65 2.12,8.56 2.16,7.64 2.18,6.77 2.19,5.98 2.24,5.41 2.31,4.96 2.40,4.57 2.53,4.27 2.70,3.97 2.88,3.67 3.07,3.42 3.31,3.18 3.57,3.01 3.85,2.92 4.19,2.82 4.64,2.68 5.20,2.55 5.74,2.44 6.26,2.33 6.86,2.27 7.50,2.24 8.13,2.27 8.70,2.33 9.24,2.36 9.85,2.38 10.50,2.39 11.12,2.39 11.74,2.40 12.57,2.35 13.52,2.28 14.36,2.25 15.14,2.23 15.88,2.26 16.52,2.32 16.96,2.40 17.16,2.58 17.09,2.81 16.82,3.21 16.41,3.83 15.91,4.53 15.33,5.32 14.69,6.07 13.98,6.76 13.18,7.49 12.43,8.26 11.66,9.13 10.83,10.10 9.96,11.13 9.17,12.10 8.51,13.00 7.84,13.94 7.24,14.77 6.77,15.41 6.38,15.85 6.03,15.96 5.70,15.71 5.34,14.72 4.92,12.79 4.60,10.69 4.42,8.95 4.37,7.63 4.38,6.77 4.43,6.15 4.69,5.64 5.19,5.22 6.22,4.81 7.87,4.40 9.67,4.09 11.16,3.87 12.16,3.75 12.81,3.77 13.07,4.05 12.99,4.83 12.73,5.98 12.31,7.33 11.86,8.66 11.52,9.62 11.29,10.28 11.16,10.74 10.95,11.12 10.57,11.52 9.69,11.91 8.44,12.22 7.44,12.43 6.75,12.55 6.32,12.48 6.05,12.18 5.80,11.25 5.58,9.93 5.36,8.75 5.25,7.83 5.27,7.28 5.55,6.89 6.11,6.53 6.78,6.25 7.59,6.05 8.49,5.89 9.21,5.76 9.61,5.91 9.74,6.40 9.77,7.12 9.74,8.05 9.59,8.83 9.19,9.18 8.57,9.19 8.00,9.10 7.55,9.01 7.17,8.92 6.96,8.82 6.96,8.38 7.00,8.00 " fill="none" stroke="#1d1d1d" stroke-width="4" stroke-dasharray="none" stroke-dashoffset="none" stroke-linejoin="round" stroke-linecap="round" pointer-events="none"/></g></g></g><g id="7c729e0b-00ed-41e5-0d5d-71eae8731c77_svg" class="tl-centered-g" transform="translate(65.41, 16.00) rotate(0.00, 299.50, 38.50)"><g pointer-events="none" stroke="#1d1d1d" stroke-width="4.23" stroke-linecap="round"><line x1="2.11" y1="2.11" x2="596.88" y2="2.11" stroke-dasharray="none" stroke-dashoffset="none"/><line x1="596.88" y1="2.11" x2="596.88" y2="74.88" stroke-dasharray="none" stroke-dashoffset="none"/><line x1="596.88" y1="74.88" x2="2.11" y2="74.88" stroke-dasharray="none" stroke-dashoffset="none"/><line x1="2.11" y1="74.88" x2="2.11" y2="2.11" stroke-dasharray="none" stroke-dashoffset="none"/></g></g><text font-size="48px" font-family="Caveat Brush" font-weight="normal" line-height="48px" letter-spacing="-0.03em" text-align="left" dominant-baseline="mathematical" alignment-baseline="mathematical" text-anchor="start" fill="#1d1d1d" transform="translate(16.00, 173.00) rotate(0.00, 517.50, 149.00)"><tspan y="24px" x="4">• Meios de comunicação: Mídia
</tspan><tspan y="72px" x="4">
→ Comunicação em massa:  imparcialidade e ausência de ideologia 
 
</tspan><tspan y="120px" x="4">
→ Quarto Poder 
 
</tspan><tspan y="168px" x="4">
→ Pós-verdade
</tspan></text><g id="f91afe83-b417-48ff-1e96-307455425f10_svg" class="tl-centered-g" transform="translate(661.37, 49.63) rotate(0.00, 24.95, 0.50)"><defs><mask id="f91afe83-b417-48ff-1e96-307455425f10_clip"><rect x="-100" y="-100" width="249.91" height="201" fill="white"/><rect x="24.95" y="0" width="0" height="0" rx="2" ry="2" fill="black" opacity="1"/></mask></defs><g pointer-events="none" opacity="1" mask=""><path d="M0,0L49.91,0" fill="#1d1d1d" stroke="#1d1d1d" stroke-width="4.23" stroke-dasharray="none" stroke-dashoffset="none" stroke-linecap="round" stroke-linejoin="round" pointer-events="stroke"/></g></g><g id="12ae606d-1889-4e66-0311-3339ddea4e2c_svg" class="tl-centered-g" transform="translate(447.75, 221.70) rotate(0.00, 303.81, 30.39)"><g pointer-events="none" stroke="#1d1d1d" stroke-width="4.23" stroke-linecap="round"><line x1="2.11" y1="2.11" x2="605.50" y2="2.11" stroke-dasharray="none" stroke-dashoffset="none"/><line x1="605.50" y1="2.11" x2="605.50" y2="58.66" stroke-dasharray="none" stroke-dashoffset="none"/><line x1="605.50" y1="58.66" x2="2.11" y2="58.66" stroke-dasharray="none" stroke-dashoffset="none"/><line x1="2.11" y1="58.66" x2="2.11" y2="2.11" stroke-dasharray="none" stroke-dashoffset="none"/></g></g><text font-size="48px" font-family="Caveat Brush" font-weight="normal" line-height="48px" letter-spacing="-0.03em" text-align="left" dominant-baseline="mathematical" alignment-baseline="mathematical" text-anchor="start" fill="#1d1d1d" transform="translate(695.60, 149.21) rotate(0.00, 50.50, 29.00)"><tspan y="24px" x="4">Irreal
</tspan></text><g id="09e8530d-1a85-46b6-0d1f-4a1de396110b_svg" class="tl-centered-g" transform="translate(688.28, 49.94) rotate(0.00, 11.49, 19.90)"><defs><mask id="09e8530d-1a85-46b6-0d1f-4a1de396110b_clip"><rect x="-100" y="-100" width="222.98" height="239.8" fill="white"/><rect x="11.49" y="19.9" width="0" height="0" rx="2" ry="2" fill="black" opacity="1"/></mask></defs><g pointer-events="none" opacity="1" mask=""><path d="M22.98,0L0,39.8" fill="#1d1d1d" stroke="#1d1d1d" stroke-width="4.23" stroke-dasharray="none" stroke-dashoffset="none" stroke-linecap="round" stroke-linejoin="round" pointer-events="stroke"/></g></g><g id="f59e3e71-fccd-44a4-0e84-836df47565e9_svg" class="tl-centered-g" transform="translate(615.01, 178.24) rotate(0.00, 33.83, 22.05)"><defs><mask id="f59e3e71-fccd-44a4-0e84-836df47565e9_clip"><rect x="-100" y="-100" width="267.65" height="244.09" fill="white"/><rect x="24.9" y="8.61" width="0" height="0" rx="2.78" ry="2.78" fill="black" opacity="1"/></mask></defs><g pointer-events="none" opacity="1" mask=""><path d="M 0 44.1 A 56.07 56.07 0 0 1 67.66 1.49" fill="none" stroke="#1d1d1d" stroke-width="4.23" stroke-dasharray="none" stroke-dashoffset="none" stroke-linecap="round" stroke-linejoin="round" pointer-events="none"/><g><path d="M 55.08,-8.407360617672898 L 67.66,1.49 52.80,7.428545674066768" fill="none" stroke="#1d1d1d" stroke-width="4.23" stroke-linecap="round" stroke-linejoin="round" pointer-events="none"/></g></g></g><g id="02778e37-0a0d-49c8-2744-c3911c52a5a0_svg" class="tl-centered-g" transform="translate(16.00, 50.57) rotate(0.00, 24.95, 0.50)"><defs><mask id="02778e37-0a0d-49c8-2744-c3911c52a5a0_clip"><rect x="-100" y="-100" width="249.91" height="201" fill="white"/><rect x="24.95" y="0" width="0" height="0" rx="2" ry="2" fill="black" opacity="1"/></mask></defs><g pointer-events="none" opacity="1" mask=""><path d="M49.91,0L0,0" fill="#1d1d1d" stroke="#1d1d1d" stroke-width="4.23" stroke-dasharray="none" stroke-dashoffset="none" stroke-linecap="round" stroke-linejoin="round" pointer-events="stroke"/></g></g><g id="006c4f79-0842-43e0-14da-65d8fa26e91b_svg" class="tl-centered-g" transform="translate(77.86, 372.00) rotate(0.00, 98.50, 0.50)"><g opacity="1"><path d="M0.00,0.00 Q4.03,0.00 7.83,0.00 T17.08,0.00 28.23,0.00 39.76,0.00 52.85,0.00 68.35,0.00 82.96,0.00 96.40,0.00 109.65,0.00 121.22,0.00 131.64,0.00 141.42,0.00 150.18,0.00 157.48,0.00 163.31,0.00 167.87,0.00 171.73,0.00 174.76,0.00 177.33,0.00 179.64,0.00 181.37,0.00 182.77,0.00 183.99,0.00 185.11,0.00 186.18,0.00 187.44,0.00 188.81,0.00 190.01,0.00 191.13,0.00 192.19,0.00 193.45,0.00 194.81,0.00 195.72,0.00 196.00,0.00 " fill="none" stroke="none" stroke-width="4" stroke-linejoin="round" stroke-linecap="round" pointer-events="none"/><path d="M0.00,0.00 Q4.03,0.00 7.83,0.00 T17.08,0.00 28.23,0.00 39.76,0.00 52.85,0.00 68.35,0.00 82.96,0.00 96.40,0.00 109.65,0.00 121.22,0.00 131.64,0.00 141.42,0.00 150.18,0.00 157.48,0.00 163.31,0.00 167.87,0.00 171.73,0.00 174.76,0.00 177.33,0.00 179.64,0.00 181.37,0.00 182.77,0.00 183.99,0.00 185.11,0.00 186.18,0.00 187.44,0.00 188.81,0.00 190.01,0.00 191.13,0.00 192.19,0.00 193.45,0.00 194.81,0.00 195.72,0.00 196.00,0.00 " fill="none" stroke="#1d1d1d" stroke-width="4" stroke-dasharray="none" stroke-dashoffset="none" stroke-linejoin="round" stroke-linecap="round" pointer-events="none"/></g></g><g id="973e5226-db8c-4f5c-3538-109d9ed1cafd_svg" class="tl-centered-g" transform="translate(687.55, 89.67) rotate(0.00, 12.01, 17.25)"><defs><mask id="973e5226-db8c-4f5c-3538-109d9ed1cafd_clip"><rect x="-100" y="-100" width="224.02" height="234.5" fill="white"/><rect x="12.01" y="17.25" width="0" height="0" rx="2" ry="2" fill="black" opacity="1"/></mask></defs><g pointer-events="none" opacity="1" mask=""><path d="M0,0L24.02,34.5" fill="#1d1d1d" stroke="#1d1d1d" stroke-width="4.23" stroke-dasharray="none" stroke-dashoffset="none" stroke-linecap="round" stroke-linejoin="round" pointer-events="stroke"/></g></g><g id="c974dcae-b338-406d-02bb-c68737f84c45_svg" class="tl-centered-g" transform="translate(16.76, 85.16) rotate(0.00, 11.49, 19.90)"><defs><mask id="c974dcae-b338-406d-02bb-c68737f84c45_clip"><rect x="-100" y="-100" width="222.98" height="239.8" fill="white"/><rect x="11.49" y="19.9" width="0" height="0" rx="2" ry="2" fill="black" opacity="1"/></mask></defs><g pointer-events="none" opacity="1" mask=""><path d="M0,39.8L22.98,0" fill="#1d1d1d" stroke="#1d1d1d" stroke-width="4.23" stroke-dasharray="none" stroke-dashoffset="none" stroke-linecap="round" stroke-linejoin="round" pointer-events="stroke"/></g></g><g id="3603d5b6-c3d9-4562-0a67-bb9d9b2baf98_svg" class="tl-centered-g" transform="translate(634.62, 124.79) rotate(0.00, 38.50, 0.50)"><defs><mask id="3603d5b6-c3d9-4562-0a67-bb9d9b2baf98_clip"><rect x="-100" y="-100" width="277" height="201" fill="white"/><rect x="38.5" y="0" width="0" height="0" rx="2.40" ry="2.40" fill="black" opacity="1"/></mask></defs><g pointer-events="none" opacity="1" mask=""><path d="M77,0L0,0" fill="#1d1d1d" stroke="#1d1d1d" stroke-width="4.23" stroke-dasharray="none" stroke-dashoffset="none" stroke-linecap="round" stroke-linejoin="round" pointer-events="stroke"/></g></g><g id="3f7c87fd-6da4-4736-111c-1722be5dc062_svg" class="tl-centered-g" transform="translate(16.46, 50.72) rotate(0.00, 12.01, 17.25)"><defs><mask id="3f7c87fd-6da4-4736-111c-1722be5dc062_clip"><rect x="-100" y="-100" width="224.02" height="234.5" fill="white"/><rect x="12.01" y="17.25" width="0" height="0" rx="2" ry="2" fill="black" opacity="1"/></mask></defs><g pointer-events="none" opacity="1" mask=""><path d="M24.02,34.5L0,0" fill="#1d1d1d" stroke="#1d1d1d" stroke-width="4.23" stroke-dasharray="none" stroke-dashoffset="none" stroke-linecap="round" stroke-linejoin="round" pointer-events="stroke"/></g></g><g id="0619ac82-7a4e-429a-19f8-b2ad03d2d733_svg" class="tl-centered-g" transform="translate(633.39, 92.76) rotate(0.00, 0.50, 16.02)"><g opacity="1"><path d="M0.31,31.72 Q0.31,29.79 0.31,28.57 T0.31,25.98 0.31,23.52 0.31,21.47 0.31,19.72 0.31,18.27 0.31,17.05 0.31,15.90 0.31,14.78 0.31,13.75 0.31,12.69 0.31,11.70 0.31,10.80 0.31,9.90 0.31,8.91 0.31,7.61 0.31,6.13 0.31,4.83 0.31,3.84 0.31,3.15 0.31,2.57 0.31,2.04 0.31,1.61 0.31,1.23 0.31,0.88 0.31,0.56 0.31,0.37 0.31,0.64 0.31,0.92 " fill="none" stroke="none" stroke-width="4" stroke-linejoin="round" stroke-linecap="round" pointer-events="none"/><path d="M0.31,31.72 Q0.31,29.79 0.31,28.57 T0.31,25.98 0.31,23.52 0.31,21.47 0.31,19.72 0.31,18.27 0.31,17.05 0.31,15.90 0.31,14.78 0.31,13.75 0.31,12.69 0.31,11.70 0.31,10.80 0.31,9.90 0.31,8.91 0.31,7.61 0.31,6.13 0.31,4.83 0.31,3.84 0.31,3.15 0.31,2.57 0.31,2.04 0.31,1.61 0.31,1.23 0.31,0.88 0.31,0.56 0.31,0.37 0.31,0.64 0.31,0.92 " fill="none" stroke="#1d1d1d" stroke-width="4" stroke-dasharray="none" stroke-dashoffset="none" stroke-linejoin="round" stroke-linecap="round" pointer-events="none"/></g></g><g id="9f4f21f7-c4f5-4d68-3870-d24f9283bb25_svg" class="tl-centered-g" transform="translate(17.15, 125.01) rotate(0.00, 38.50, 0.50)"><defs><mask id="9f4f21f7-c4f5-4d68-3870-d24f9283bb25_clip"><rect x="-100" y="-100" width="277" height="201" fill="white"/><rect x="38.5" y="0" width="0" height="0" rx="2.40" ry="2.40" fill="black" opacity="1"/></mask></defs><g pointer-events="none" opacity="1" mask=""><path d="M0,0L77,0" fill="#1d1d1d" stroke="#1d1d1d" stroke-width="4.23" stroke-dasharray="none" stroke-dashoffset="none" stroke-linecap="round" stroke-linejoin="round" pointer-events="stroke"/></g></g><g id="0c455879-495c-44de-27cd-5c1272349e3b_svg" class="tl-centered-g" transform="translate(633.39, 93.00) rotate(0.00, 13.96, 14.81)"><defs><mask id="0c455879-495c-44de-27cd-5c1272349e3b_clip"><rect x="-100" y="-100" width="227.91" height="229.63" fill="white"/><rect x="13.95" y="14.81" width="0" height="0" rx="2" ry="2" fill="black" opacity="1"/></mask></defs><g pointer-events="none" opacity="1" mask=""><path d="M0,29.63L27.91,0" fill="#1d1d1d" stroke="#1d1d1d" stroke-width="4.23" stroke-dasharray="none" stroke-dashoffset="none" stroke-linecap="round" stroke-linejoin="round" pointer-events="stroke"/></g></g><g id="1d37f4de-9b1d-4c46-2c6c-3ed19a9157bd_svg" class="tl-centered-g" transform="translate(94.31, 91.96) rotate(180.00, 0.50, 16.02)"><g opacity="1"><path d="M0.31,31.72 Q0.31,29.79 0.31,28.57 T0.31,25.98 0.31,23.52 0.31,21.47 0.31,19.72 0.31,18.27 0.31,17.05 0.31,15.90 0.31,14.78 0.31,13.75 0.31,12.69 0.31,11.70 0.31,10.80 0.31,9.90 0.31,8.91 0.31,7.61 0.31,6.13 0.31,4.83 0.31,3.84 0.31,3.15 0.31,2.57 0.31,2.04 0.31,1.61 0.31,1.23 0.31,0.88 0.31,0.56 0.31,0.37 0.31,0.64 0.31,0.92 " fill="none" stroke="none" stroke-width="4" stroke-linejoin="round" stroke-linecap="round" pointer-events="none"/><path d="M0.31,31.72 Q0.31,29.79 0.31,28.57 T0.31,25.98 0.31,23.52 0.31,21.47 0.31,19.72 0.31,18.27 0.31,17.05 0.31,15.90 0.31,14.78 0.31,13.75 0.31,12.69 0.31,11.70 0.31,10.80 0.31,9.90 0.31,8.91 0.31,7.61 0.31,6.13 0.31,4.83 0.31,3.84 0.31,3.15 0.31,2.57 0.31,2.04 0.31,1.61 0.31,1.23 0.31,0.88 0.31,0.56 0.31,0.37 0.31,0.64 0.31,0.92 " fill="none" stroke="#1d1d1d" stroke-width="4" stroke-dasharray="none" stroke-dashoffset="none" stroke-linejoin="round" stroke-linecap="round" pointer-events="none"/></g></g><g id="f3b7d961-fdf8-4d67-03de-2124326a6ceb_svg" class="tl-centered-g" transform="translate(67.54, 93.00) rotate(0.00, 13.79, 15.68)"><defs><mask id="f3b7d961-fdf8-4d67-03de-2124326a6ceb_clip"><rect x="-100" y="-100" width="227.57" height="231.35" fill="white"/><rect x="13.79" y="15.67" width="0" height="0" rx="2" ry="2" fill="black" opacity="1"/></mask></defs><g pointer-events="none" opacity="1" mask=""><path d="M0,0L27.58,31.35" fill="#1d1d1d" stroke="#1d1d1d" stroke-width="4.23" stroke-dasharray="none" stroke-dashoffset="none" stroke-linecap="round" stroke-linejoin="round" pointer-events="stroke"/></g></g><g id="68b2eb1a-e940-49b6-2a8e-8859ebc037a6_svg" class="tl-centered-g" transform="translate(70.01, 91.52) rotate(0.00, 11.30, 13.20)"><g opacity="1"><path d="M1.00,2.00 Q1.90,2.72 1.96,2.56 T1.93,2.22 1.70,1.94 1.47,1.92 1.35,2.23 1.46,2.98 1.84,3.97 2.27,4.74 2.69,5.13 3.05,4.94 3.25,4.20 3.18,3.22 2.79,2.23 2.21,1.50 1.62,1.19 1.17,1.37 0.96,2.19 1.11,3.40 1.82,4.48 3.07,4.67 4.15,3.96 4.58,3.18 4.50,2.56 4.10,2.09 3.56,1.82 3.04,1.95 2.89,2.78 3.21,3.95 3.96,4.87 5.32,5.24 6.79,5.00 7.73,4.33 8.03,3.47 7.79,2.68 7.04,2.06 6.04,1.76 5.21,2.23 4.80,3.38 4.94,4.64 5.64,5.74 6.74,6.39 8.06,6.26 9.20,5.56 9.74,4.73 9.63,3.78 8.81,2.89 7.78,2.49 7.07,3.08 6.77,4.21 6.87,5.28 7.33,6.32 8.21,7.07 9.51,7.17 10.85,6.42 11.81,5.21 12.21,3.91 11.58,2.61 10.20,1.75 8.99,1.68 8.19,2.23 7.97,3.29 8.39,4.55 9.24,5.56 10.48,6.11 11.83,6.15 12.94,5.77 13.68,5.07 13.96,4.10 13.62,2.94 12.80,1.93 11.91,1.47 11.19,1.75 10.79,2.62 10.75,3.69 11.09,4.72 11.76,5.52 12.85,5.91 14.26,5.55 15.40,4.59 15.71,3.38 15.17,2.23 14.24,1.59 13.33,1.86 12.82,3.04 13.26,4.59 14.35,5.85 15.54,6.36 16.77,5.75 17.68,4.43 17.91,3.21 17.50,2.18 16.70,1.56 15.89,1.85 15.40,2.85 15.49,4.04 16.03,5.10 16.82,5.68 17.71,5.73 18.55,5.32 19.25,4.37 19.63,3.13 19.62,2.00 19.03,1.15 18.12,1.08 17.62,2.21 17.61,3.68 17.87,4.85 18.47,5.77 19.42,6.05 20.49,5.63 21.30,4.76 21.79,3.66 21.88,2.52 21.53,1.52 20.85,0.84 19.98,0.69 19.49,1.90 19.50,3.78 19.68,5.04 20.22,5.65 21.02,5.36 21.68,4.48 22.09,3.42 22.23,2.42 21.99,1.92 21.55,2.18 21.08,3.58 20.60,6.32 20.20,9.75 19.93,13.22 19.83,16.43 19.86,18.92 20.01,20.57 20.28,21.39 20.64,21.21 21.03,20.22 21.19,19.41 21.15,19.36 21.08,19.91 21.09,20.85 21.18,21.72 21.33,22.43 21.49,23.00 21.68,23.45 21.87,23.92 22.02,24.36 22.14,24.69 22.26,24.96 22.32,25.20 22.36,25.52 22.38,25.87 22.34,26.06 22.19,25.76 21.97,24.53 21.80,22.28 21.67,19.47 21.55,15.90 21.48,12.55 21.49,10.51 21.58,9.39 21.77,9.62 21.96,11.27 22.07,13.56 22.08,16.04 22.00,18.30 21.91,19.96 21.91,20.74 21.86,19.20 21.61,15.89 21.29,13.03 21.03,11.05 20.66,10.76 20.32,12.39 20.27,14.76 20.42,17.11 20.63,19.03 20.84,20.40 21.00,21.34 21.05,21.86 20.94,22.06 20.74,22.12 20.59,22.20 20.46,22.33 20.34,22.50 20.28,22.68 20.20,22.78 19.98,22.65 19.58,22.32 18.92,21.59 17.97,20.43 16.82,18.99 15.25,16.98 13.57,14.75 12.33,12.98 11.51,11.65 10.97,10.69 10.76,10.42 11.49,11.62 13.29,14.12 15.22,16.53 16.46,17.90 15.99,17.32 13.53,14.31 10.97,11.00 10.40,10.37 11.56,12.04 12.88,13.77 13.92,14.95 14.40,15.37 13.82,14.67 12.24,12.94 10.30,10.91 8.69,9.34 7.62,8.47 7.16,8.39 7.54,9.29 8.55,10.82 9.56,12.20 10.29,13.09 10.61,13.19 9.71,11.76 8.18,9.72 7.12,8.32 6.53,7.51 6.69,7.50 8.35,9.20 10.92,11.93 13.06,14.02 14.02,14.41 13.29,12.62 11.69,9.70 10.75,7.87 11.31,8.60 12.78,11.06 14.45,13.85 15.99,16.20 16.94,17.23 16.79,16.23 15.76,13.80 14.44,11.03 13.30,8.73 12.63,7.29 12.88,7.69 14.01,9.98 15.44,12.94 16.72,15.56 17.52,17.10 17.96,17.64 17.39,15.56 16.14,11.82 15.27,9.13 14.79,7.50 14.66,6.83 15.08,7.62 16.16,10.39 17.34,13.66 18.13,15.56 18.38,15.49 18.12,13.79 17.58,11.20 17.05,8.60 16.80,6.81 16.94,6.18 17.55,7.62 18.38,10.48 19.10,13.17 19.68,15.15 20.00,15.58 19.73,13.71 19.18,11.06 18.79,9.02 18.61,7.85 18.83,8.99 19.26,11.90 19.59,14.36 19.78,15.86 19.88,15.88 19.84,14.23 19.69,11.67 19.56,9.26 19.49,7.67 19.54,6.79 19.88,7.78 20.34,10.92 20.63,14.00 20.80,15.61 20.66,14.80 20.32,12.43 20.09,10.58 20.23,10.63 20.62,12.41 20.92,14.19 21.18,15.36 21.41,15.29 21.50,14.04 21.36,12.46 21.20,11.45 21.20,11.34 21.29,11.77 21.36,12.93 21.40,13.80 " fill="none" stroke="none" stroke-width="4" stroke-linejoin="round" stroke-linecap="round" pointer-events="none"/><path d="M1.00,2.00 Q1.90,2.72 1.96,2.56 T1.93,2.22 1.70,1.94 1.47,1.92 1.35,2.23 1.46,2.98 1.84,3.97 2.27,4.74 2.69,5.13 3.05,4.94 3.25,4.20 3.18,3.22 2.79,2.23 2.21,1.50 1.62,1.19 1.17,1.37 0.96,2.19 1.11,3.40 1.82,4.48 3.07,4.67 4.15,3.96 4.58,3.18 4.50,2.56 4.10,2.09 3.56,1.82 3.04,1.95 2.89,2.78 3.21,3.95 3.96,4.87 5.32,5.24 6.79,5.00 7.73,4.33 8.03,3.47 7.79,2.68 7.04,2.06 6.04,1.76 5.21,2.23 4.80,3.38 4.94,4.64 5.64,5.74 6.74,6.39 8.06,6.26 9.20,5.56 9.74,4.73 9.63,3.78 8.81,2.89 7.78,2.49 7.07,3.08 6.77,4.21 6.87,5.28 7.33,6.32 8.21,7.07 9.51,7.17 10.85,6.42 11.81,5.21 12.21,3.91 11.58,2.61 10.20,1.75 8.99,1.68 8.19,2.23 7.97,3.29 8.39,4.55 9.24,5.56 10.48,6.11 11.83,6.15 12.94,5.77 13.68,5.07 13.96,4.10 13.62,2.94 12.80,1.93 11.91,1.47 11.19,1.75 10.79,2.62 10.75,3.69 11.09,4.72 11.76,5.52 12.85,5.91 14.26,5.55 15.40,4.59 15.71,3.38 15.17,2.23 14.24,1.59 13.33,1.86 12.82,3.04 13.26,4.59 14.35,5.85 15.54,6.36 16.77,5.75 17.68,4.43 17.91,3.21 17.50,2.18 16.70,1.56 15.89,1.85 15.40,2.85 15.49,4.04 16.03,5.10 16.82,5.68 17.71,5.73 18.55,5.32 19.25,4.37 19.63,3.13 19.62,2.00 19.03,1.15 18.12,1.08 17.62,2.21 17.61,3.68 17.87,4.85 18.47,5.77 19.42,6.05 20.49,5.63 21.30,4.76 21.79,3.66 21.88,2.52 21.53,1.52 20.85,0.84 19.98,0.69 19.49,1.90 19.50,3.78 19.68,5.04 20.22,5.65 21.02,5.36 21.68,4.48 22.09,3.42 22.23,2.42 21.99,1.92 21.55,2.18 21.08,3.58 20.60,6.32 20.20,9.75 19.93,13.22 19.83,16.43 19.86,18.92 20.01,20.57 20.28,21.39 20.64,21.21 21.03,20.22 21.19,19.41 21.15,19.36 21.08,19.91 21.09,20.85 21.18,21.72 21.33,22.43 21.49,23.00 21.68,23.45 21.87,23.92 22.02,24.36 22.14,24.69 22.26,24.96 22.32,25.20 22.36,25.52 22.38,25.87 22.34,26.06 22.19,25.76 21.97,24.53 21.80,22.28 21.67,19.47 21.55,15.90 21.48,12.55 21.49,10.51 21.58,9.39 21.77,9.62 21.96,11.27 22.07,13.56 22.08,16.04 22.00,18.30 21.91,19.96 21.91,20.74 21.86,19.20 21.61,15.89 21.29,13.03 21.03,11.05 20.66,10.76 20.32,12.39 20.27,14.76 20.42,17.11 20.63,19.03 20.84,20.40 21.00,21.34 21.05,21.86 20.94,22.06 20.74,22.12 20.59,22.20 20.46,22.33 20.34,22.50 20.28,22.68 20.20,22.78 19.98,22.65 19.58,22.32 18.92,21.59 17.97,20.43 16.82,18.99 15.25,16.98 13.57,14.75 12.33,12.98 11.51,11.65 10.97,10.69 10.76,10.42 11.49,11.62 13.29,14.12 15.22,16.53 16.46,17.90 15.99,17.32 13.53,14.31 10.97,11.00 10.40,10.37 11.56,12.04 12.88,13.77 13.92,14.95 14.40,15.37 13.82,14.67 12.24,12.94 10.30,10.91 8.69,9.34 7.62,8.47 7.16,8.39 7.54,9.29 8.55,10.82 9.56,12.20 10.29,13.09 10.61,13.19 9.71,11.76 8.18,9.72 7.12,8.32 6.53,7.51 6.69,7.50 8.35,9.20 10.92,11.93 13.06,14.02 14.02,14.41 13.29,12.62 11.69,9.70 10.75,7.87 11.31,8.60 12.78,11.06 14.45,13.85 15.99,16.20 16.94,17.23 16.79,16.23 15.76,13.80 14.44,11.03 13.30,8.73 12.63,7.29 12.88,7.69 14.01,9.98 15.44,12.94 16.72,15.56 17.52,17.10 17.96,17.64 17.39,15.56 16.14,11.82 15.27,9.13 14.79,7.50 14.66,6.83 15.08,7.62 16.16,10.39 17.34,13.66 18.13,15.56 18.38,15.49 18.12,13.79 17.58,11.20 17.05,8.60 16.80,6.81 16.94,6.18 17.55,7.62 18.38,10.48 19.10,13.17 19.68,15.15 20.00,15.58 19.73,13.71 19.18,11.06 18.79,9.02 18.61,7.85 18.83,8.99 19.26,11.90 19.59,14.36 19.78,15.86 19.88,15.88 19.84,14.23 19.69,11.67 19.56,9.26 19.49,7.67 19.54,6.79 19.88,7.78 20.34,10.92 20.63,14.00 20.80,15.61 20.66,14.80 20.32,12.43 20.09,10.58 20.23,10.63 20.62,12.41 20.92,14.19 21.18,15.36 21.41,15.29 21.50,14.04 21.36,12.46 21.20,11.45 21.20,11.34 21.29,11.77 21.36,12.93 21.40,13.80 " fill="none" stroke="#1d1d1d" stroke-width="4" stroke-dasharray="none" stroke-dashoffset="none" stroke-linejoin="round" stroke-linecap="round" pointer-events="none"/></g></g><g id="b4174514-9baf-4358-3a6b-eff05e1096f5_svg" class="tl-centered-g" transform="translate(92.56, 97.26) rotate(0.00, 0.50, 3.66)"><g opacity="1"><path d="M0.78,3.14 Q0.66,1.73 0.63,1.47 T0.64,1.75 0.70,3.13 0.68,4.65 0.61,5.79 0.57,6.06 0.49,5.52 0.33,4.45 0.18,3.16 0.10,2.10 0.06,1.46 0.15,1.63 0.31,2.42 0.41,3.15 0.48,2.51 0.52,1.57 " fill="none" stroke="none" stroke-width="4" stroke-linejoin="round" stroke-linecap="round" pointer-events="none"/><path d="M0.78,3.14 Q0.66,1.73 0.63,1.47 T0.64,1.75 0.70,3.13 0.68,4.65 0.61,5.79 0.57,6.06 0.49,5.52 0.33,4.45 0.18,3.16 0.10,2.10 0.06,1.46 0.15,1.63 0.31,2.42 0.41,3.15 0.48,2.51 0.52,1.57 " fill="none" stroke="#1d1d1d" stroke-width="4" stroke-dasharray="none" stroke-dashoffset="none" stroke-linejoin="round" stroke-linecap="round" pointer-events="none"/></g></g><g id="4913f1cc-2f26-489c-2d11-706eaada9ed9_svg" class="tl-centered-g" transform="translate(634.81, 92.16) rotate(0.00, 11.90, 13.00)"><g opacity="1"><path d="M3.40,13.00 Q2.86,15.24 2.80,15.90 T2.85,16.66 3.05,16.10 3.21,14.40 3.20,12.30 2.98,10.24 2.67,8.61 2.37,7.62 2.03,7.52 1.70,8.77 1.48,10.53 1.53,11.95 1.97,12.82 2.56,12.81 3.03,11.55 3.10,9.29 2.88,7.15 2.62,5.56 2.43,4.46 2.24,3.99 2.00,4.08 1.77,4.49 1.61,5.03 1.47,5.51 1.35,5.64 1.28,5.40 1.20,4.95 1.11,4.44 1.06,3.84 1.03,3.06 1.02,2.18 0.97,1.43 0.89,0.92 0.90,0.60 0.94,0.38 1.10,0.21 1.46,0.16 1.92,0.18 2.45,0.19 2.97,0.19 3.52,0.29 4.14,0.43 4.79,0.50 5.42,0.59 5.95,0.68 6.37,0.74 6.70,0.76 7.06,0.78 7.43,0.79 7.78,0.79 8.19,0.80 8.69,0.80 9.32,0.80 9.98,0.80 10.53,0.80 11.01,0.80 11.68,0.76 12.45,0.69 13.10,0.65 13.72,0.63 14.34,0.61 15.04,0.56 15.83,0.49 16.58,0.45 17.26,0.43 17.86,0.37 18.41,0.29 18.94,0.25 19.51,0.23 20.09,0.17 20.63,0.09 21.15,0.05 21.71,0.03 22.24,0.02 22.67,0.05 23.04,0.12 23.34,0.16 23.50,0.26 23.41,0.50 23.09,0.77 22.69,1.05 22.29,1.39 21.89,1.75 21.49,2.13 21.09,2.52 20.65,2.96 20.13,3.38 19.67,3.75 19.28,4.13 18.89,4.52 18.53,4.87 18.21,5.20 17.89,5.51 17.58,5.77 17.23,6.10 16.90,6.46 16.59,6.79 16.24,7.20 15.91,7.60 15.64,7.96 15.31,8.34 14.95,8.68 14.66,9.09 14.36,9.59 14.02,10.04 13.61,10.47 13.20,10.89 12.80,11.38 12.31,11.93 11.86,12.41 11.47,12.85 11.04,13.28 10.53,13.73 10.02,14.17 9.52,14.58 8.93,15.04 8.29,15.47 7.71,15.89 7.17,16.29 6.69,16.66 6.34,16.94 6.01,17.19 5.51,17.60 4.97,18.09 4.58,18.45 4.23,18.83 3.86,19.31 3.52,19.80 3.20,20.38 2.80,21.11 2.35,21.82 1.97,22.39 1.67,22.84 1.41,23.23 1.18,23.57 0.97,23.90 0.76,24.17 0.55,24.41 0.40,24.63 0.31,24.88 0.21,25.16 0.12,25.40 0.07,25.62 0.04,25.75 0.02,25.64 0.01,25.31 0.01,24.81 0.09,24.00 0.28,22.93 0.47,21.80 0.70,20.46 0.93,19.04 1.09,17.64 1.28,15.96 1.47,14.32 1.66,13.02 1.81,11.85 1.94,10.75 2.06,9.65 2.12,8.56 2.16,7.64 2.18,6.77 2.19,5.98 2.24,5.41 2.31,4.96 2.40,4.57 2.53,4.27 2.70,3.97 2.88,3.67 3.07,3.42 3.31,3.18 3.57,3.01 3.85,2.92 4.19,2.82 4.64,2.68 5.20,2.55 5.74,2.44 6.26,2.33 6.86,2.27 7.50,2.24 8.13,2.27 8.70,2.33 9.24,2.36 9.85,2.38 10.50,2.39 11.12,2.39 11.74,2.40 12.57,2.35 13.52,2.28 14.36,2.25 15.14,2.23 15.88,2.26 16.52,2.32 16.96,2.40 17.16,2.58 17.09,2.81 16.82,3.21 16.41,3.83 15.91,4.53 15.33,5.32 14.69,6.07 13.98,6.76 13.18,7.49 12.43,8.26 11.66,9.13 10.83,10.10 9.96,11.13 9.17,12.10 8.51,13.00 7.84,13.94 7.24,14.77 6.77,15.41 6.38,15.85 6.03,15.96 5.70,15.71 5.34,14.72 4.92,12.79 4.60,10.69 4.42,8.95 4.37,7.63 4.38,6.77 4.43,6.15 4.69,5.64 5.19,5.22 6.22,4.81 7.87,4.40 9.67,4.09 11.16,3.87 12.16,3.75 12.81,3.77 13.07,4.05 12.99,4.83 12.73,5.98 12.31,7.33 11.86,8.66 11.52,9.62 11.29,10.28 11.16,10.74 10.95,11.12 10.57,11.52 9.69,11.91 8.44,12.22 7.44,12.43 6.75,12.55 6.32,12.48 6.05,12.18 5.80,11.25 5.58,9.93 5.36,8.75 5.25,7.83 5.27,7.28 5.55,6.89 6.11,6.53 6.78,6.25 7.59,6.05 8.49,5.89 9.21,5.76 9.61,5.91 9.74,6.40 9.77,7.12 9.74,8.05 9.59,8.83 9.19,9.18 8.57,9.19 8.00,9.10 7.55,9.01 7.17,8.92 6.96,8.82 6.96,8.38 7.00,8.00 " fill="none" stroke="none" stroke-width="4" stroke-linejoin="round" stroke-linecap="round" pointer-events="none"/><path d="M3.40,13.00 Q2.86,15.24 2.80,15.90 T2.85,16.66 3.05,16.10 3.21,14.40 3.20,12.30 2.98,10.24 2.67,8.61 2.37,7.62 2.03,7.52 1.70,8.77 1.48,10.53 1.53,11.95 1.97,12.82 2.56,12.81 3.03,11.55 3.10,9.29 2.88,7.15 2.62,5.56 2.43,4.46 2.24,3.99 2.00,4.08 1.77,4.49 1.61,5.03 1.47,5.51 1.35,5.64 1.28,5.40 1.20,4.95 1.11,4.44 1.06,3.84 1.03,3.06 1.02,2.18 0.97,1.43 0.89,0.92 0.90,0.60 0.94,0.38 1.10,0.21 1.46,0.16 1.92,0.18 2.45,0.19 2.97,0.19 3.52,0.29 4.14,0.43 4.79,0.50 5.42,0.59 5.95,0.68 6.37,0.74 6.70,0.76 7.06,0.78 7.43,0.79 7.78,0.79 8.19,0.80 8.69,0.80 9.32,0.80 9.98,0.80 10.53,0.80 11.01,0.80 11.68,0.76 12.45,0.69 13.10,0.65 13.72,0.63 14.34,0.61 15.04,0.56 15.83,0.49 16.58,0.45 17.26,0.43 17.86,0.37 18.41,0.29 18.94,0.25 19.51,0.23 20.09,0.17 20.63,0.09 21.15,0.05 21.71,0.03 22.24,0.02 22.67,0.05 23.04,0.12 23.34,0.16 23.50,0.26 23.41,0.50 23.09,0.77 22.69,1.05 22.29,1.39 21.89,1.75 21.49,2.13 21.09,2.52 20.65,2.96 20.13,3.38 19.67,3.75 19.28,4.13 18.89,4.52 18.53,4.87 18.21,5.20 17.89,5.51 17.58,5.77 17.23,6.10 16.90,6.46 16.59,6.79 16.24,7.20 15.91,7.60 15.64,7.96 15.31,8.34 14.95,8.68 14.66,9.09 14.36,9.59 14.02,10.04 13.61,10.47 13.20,10.89 12.80,11.38 12.31,11.93 11.86,12.41 11.47,12.85 11.04,13.28 10.53,13.73 10.02,14.17 9.52,14.58 8.93,15.04 8.29,15.47 7.71,15.89 7.17,16.29 6.69,16.66 6.34,16.94 6.01,17.19 5.51,17.60 4.97,18.09 4.58,18.45 4.23,18.83 3.86,19.31 3.52,19.80 3.20,20.38 2.80,21.11 2.35,21.82 1.97,22.39 1.67,22.84 1.41,23.23 1.18,23.57 0.97,23.90 0.76,24.17 0.55,24.41 0.40,24.63 0.31,24.88 0.21,25.16 0.12,25.40 0.07,25.62 0.04,25.75 0.02,25.64 0.01,25.31 0.01,24.81 0.09,24.00 0.28,22.93 0.47,21.80 0.70,20.46 0.93,19.04 1.09,17.64 1.28,15.96 1.47,14.32 1.66,13.02 1.81,11.85 1.94,10.75 2.06,9.65 2.12,8.56 2.16,7.64 2.18,6.77 2.19,5.98 2.24,5.41 2.31,4.96 2.40,4.57 2.53,4.27 2.70,3.97 2.88,3.67 3.07,3.42 3.31,3.18 3.57,3.01 3.85,2.92 4.19,2.82 4.64,2.68 5.20,2.55 5.74,2.44 6.26,2.33 6.86,2.27 7.50,2.24 8.13,2.27 8.70,2.33 9.24,2.36 9.85,2.38 10.50,2.39 11.12,2.39 11.74,2.40 12.57,2.35 13.52,2.28 14.36,2.25 15.14,2.23 15.88,2.26 16.52,2.32 16.96,2.40 17.16,2.58 17.09,2.81 16.82,3.21 16.41,3.83 15.91,4.53 15.33,5.32 14.69,6.07 13.98,6.76 13.18,7.49 12.43,8.26 11.66,9.13 10.83,10.10 9.96,11.13 9.17,12.10 8.51,13.00 7.84,13.94 7.24,14.77 6.77,15.41 6.38,15.85 6.03,15.96 5.70,15.71 5.34,14.72 4.92,12.79 4.60,10.69 4.42,8.95 4.37,7.63 4.38,6.77 4.43,6.15 4.69,5.64 5.19,5.22 6.22,4.81 7.87,4.40 9.67,4.09 11.16,3.87 12.16,3.75 12.81,3.77 13.07,4.05 12.99,4.83 12.73,5.98 12.31,7.33 11.86,8.66 11.52,9.62 11.29,10.28 11.16,10.74 10.95,11.12 10.57,11.52 9.69,11.91 8.44,12.22 7.44,12.43 6.75,12.55 6.32,12.48 6.05,12.18 5.80,11.25 5.58,9.93 5.36,8.75 5.25,7.83 5.27,7.28 5.55,6.89 6.11,6.53 6.78,6.25 7.59,6.05 8.49,5.89 9.21,5.76 9.61,5.91 9.74,6.40 9.77,7.12 9.74,8.05 9.59,8.83 9.19,9.18 8.57,9.19 8.00,9.10 7.55,9.01 7.17,8.92 6.96,8.82 6.96,8.38 7.00,8.00 " fill="none" stroke="#1d1d1d" stroke-width="4" stroke-dasharray="none" stroke-dashoffset="none" stroke-linejoin="round" stroke-linecap="round" pointer-events="none"/></g></g><text font-size="48px" font-family="Caveat Brush" font-weight="normal" line-height="48px" letter-spacing="-0.03em" text-align="left" dominant-baseline="mathematical" alignment-baseline="mathematical" text-anchor="start" fill="#1d1d1d" transform="translate(78.41, 23.00) rotate(0.00, 286.50, 29.00)"><tspan y="24px" x="4">Cultura midiática: Relações de poder
</tspan></text></svg>