<svg xmlns="http://www.w3.org/2000/svg" viewBox="0 0 1333.15 598.37" width="1333.15" height="598.37" style="background-color: transparent;"><defs><style>@import url('https://fonts.googleapis.com/css2?family=Caveat+Brush&amp;family=Source+Code+Pro&amp;family=Source+Sans+Pro&amp;family=Crimson+Pro&amp;display=block');</style></defs><g id="80a135c9-f120-43be-12cd-11dde5b429dd_svg" class="tl-centered-g" transform="translate(65.41, 27.16) rotate(0.00, 213.05, 38.50)"><g pointer-events="none" stroke="#1d1d1d" stroke-width="4.23" stroke-linecap="round"><line x1="2.11" y1="2.11" x2="423.98" y2="2.11" stroke-dasharray="none" stroke-dashoffset="none"/><line x1="423.98" y1="2.11" x2="423.98" y2="74.88" stroke-dasharray="none" stroke-dashoffset="none"/><line x1="423.98" y1="74.88" x2="2.11" y2="74.88" stroke-dasharray="none" stroke-dashoffset="none"/><line x1="2.11" y1="74.88" x2="2.11" y2="2.11" stroke-dasharray="none" stroke-dashoffset="none"/></g></g><g><g id="80a135c9-f120-43be-12cd-11dde5b429dd_svg" class="tl-centered-g" transform="translate(65.41, 27.16) rotate(0.00, 213.05, 38.50)"><g pointer-events="none" stroke="#1d1d1d" stroke-width="4.23" stroke-linecap="round"><line x1="2.11" y1="2.11" x2="423.98" y2="2.11" stroke-dasharray="none" stroke-dashoffset="none"/><line x1="423.98" y1="2.11" x2="423.98" y2="74.88" stroke-dasharray="none" stroke-dashoffset="none"/><line x1="423.98" y1="74.88" x2="2.11" y2="74.88" stroke-dasharray="none" stroke-dashoffset="none"/><line x1="2.11" y1="74.88" x2="2.11" y2="2.11" stroke-dasharray="none" stroke-dashoffset="none"/></g></g><g id="96f7ddc7-c7c0-4a57-0186-9cebde00fc8d_svg" class="tl-centered-g" transform="translate(489.36, 59.46) rotate(0.00, 24.95, 0.50)"><defs><mask id="96f7ddc7-c7c0-4a57-0186-9cebde00fc8d_clip"><rect x="-100" y="-100" width="249.91" height="201" fill="white"/><rect x="24.95" y="0" width="0" height="0" rx="2" ry="2" fill="black" opacity="1"/></mask></defs><g pointer-events="none" opacity="1" mask=""><path d="M0,0L49.91,0" fill="#1d1d1d" stroke="#1d1d1d" stroke-width="4.23" stroke-dasharray="none" stroke-dashoffset="none" stroke-linecap="round" stroke-linejoin="round" pointer-events="stroke"/></g></g><g id="bf74c765-1bb9-4f79-1d33-72fed2af0ee5_svg" class="tl-centered-g" transform="translate(516.27, 59.77) rotate(0.00, 11.49, 19.90)"><defs><mask id="bf74c765-1bb9-4f79-1d33-72fed2af0ee5_clip"><rect x="-100" y="-100" width="222.98" height="239.8" fill="white"/><rect x="11.49" y="19.9" width="0" height="0" rx="2" ry="2" fill="black" opacity="1"/></mask></defs><g pointer-events="none" opacity="1" mask=""><path d="M22.98,0L0,39.8" fill="#1d1d1d" stroke="#1d1d1d" stroke-width="4.23" stroke-dasharray="none" stroke-dashoffset="none" stroke-linecap="round" stroke-linejoin="round" pointer-events="stroke"/></g></g><g id="692796d6-5f8d-4cb0-1ad8-d3c319e4ad73_svg" class="tl-centered-g" transform="translate(16.00, 61.73) rotate(0.00, 24.95, 0.50)"><defs><mask id="692796d6-5f8d-4cb0-1ad8-d3c319e4ad73_clip"><rect x="-100" y="-100" width="249.91" height="201" fill="white"/><rect x="24.95" y="0" width="0" height="0" rx="2" ry="2" fill="black" opacity="1"/></mask></defs><g pointer-events="none" opacity="1" mask=""><path d="M49.91,0L0,0" fill="#1d1d1d" stroke="#1d1d1d" stroke-width="4.23" stroke-dasharray="none" stroke-dashoffset="none" stroke-linecap="round" stroke-linejoin="round" pointer-events="stroke"/></g></g><g id="0dc94b8f-2548-4a90-0488-4f495cda2e78_svg" class="tl-centered-g" transform="translate(515.54, 99.50) rotate(0.00, 12.01, 17.25)"><defs><mask id="0dc94b8f-2548-4a90-0488-4f495cda2e78_clip"><rect x="-100" y="-100" width="224.02" height="234.5" fill="white"/><rect x="12.01" y="17.25" width="0" height="0" rx="2" ry="2" fill="black" opacity="1"/></mask></defs><g pointer-events="none" opacity="1" mask=""><path d="M0,0L24.02,34.5" fill="#1d1d1d" stroke="#1d1d1d" stroke-width="4.23" stroke-dasharray="none" stroke-dashoffset="none" stroke-linecap="round" stroke-linejoin="round" pointer-events="stroke"/></g></g><g id="561a68d7-21c2-475a-3579-ca5e02785e09_svg" class="tl-centered-g" transform="translate(16.76, 96.32) rotate(0.00, 11.49, 19.90)"><defs><mask id="561a68d7-21c2-475a-3579-ca5e02785e09_clip"><rect x="-100" y="-100" width="222.98" height="239.8" fill="white"/><rect x="11.49" y="19.9" width="0" height="0" rx="2" ry="2" fill="black" opacity="1"/></mask></defs><g pointer-events="none" opacity="1" mask=""><path d="M0,39.8L22.98,0" fill="#1d1d1d" stroke="#1d1d1d" stroke-width="4.23" stroke-dasharray="none" stroke-dashoffset="none" stroke-linecap="round" stroke-linejoin="round" pointer-events="stroke"/></g></g><g id="18355f29-de1d-4efa-3d08-5f16e596f7fb_svg" class="tl-centered-g" transform="translate(462.61, 134.62) rotate(0.00, 38.50, 0.50)"><defs><mask id="18355f29-de1d-4efa-3d08-5f16e596f7fb_clip"><rect x="-100" y="-100" width="277" height="201" fill="white"/><rect x="38.5" y="0" width="0" height="0" rx="2.40" ry="2.40" fill="black" opacity="1"/></mask></defs><g pointer-events="none" opacity="1" mask=""><path d="M77,0L0,0" fill="#1d1d1d" stroke="#1d1d1d" stroke-width="4.23" stroke-dasharray="none" stroke-dashoffset="none" stroke-linecap="round" stroke-linejoin="round" pointer-events="stroke"/></g></g><g id="b15ad5a8-9b33-430a-2f1c-1878d433ac46_svg" class="tl-centered-g" transform="translate(16.46, 61.88) rotate(0.00, 12.01, 17.25)"><defs><mask id="b15ad5a8-9b33-430a-2f1c-1878d433ac46_clip"><rect x="-100" y="-100" width="224.02" height="234.5" fill="white"/><rect x="12.01" y="17.25" width="0" height="0" rx="2" ry="2" fill="black" opacity="1"/></mask></defs><g pointer-events="none" opacity="1" mask=""><path d="M24.02,34.5L0,0" fill="#1d1d1d" stroke="#1d1d1d" stroke-width="4.23" stroke-dasharray="none" stroke-dashoffset="none" stroke-linecap="round" stroke-linejoin="round" pointer-events="stroke"/></g></g><g id="10df4f55-5948-4dca-3425-8a2c53d2bab4_svg" class="tl-centered-g" transform="translate(461.38, 102.59) rotate(0.00, 0.50, 16.02)"><g opacity="1"><path d="M0.31,31.72 Q0.31,29.79 0.31,28.57 T0.31,25.98 0.31,23.52 0.31,21.47 0.31,19.72 0.31,18.27 0.31,17.05 0.31,15.90 0.31,14.78 0.31,13.75 0.31,12.69 0.31,11.70 0.31,10.80 0.31,9.90 0.31,8.91 0.31,7.61 0.31,6.13 0.31,4.83 0.31,3.84 0.31,3.15 0.31,2.57 0.31,2.04 0.31,1.61 0.31,1.23 0.31,0.88 0.31,0.56 0.31,0.37 0.31,0.64 0.31,0.92 " fill="none" stroke="none" stroke-width="4" stroke-linejoin="round" stroke-linecap="round" pointer-events="none"/><path d="M0.31,31.72 Q0.31,29.79 0.31,28.57 T0.31,25.98 0.31,23.52 0.31,21.47 0.31,19.72 0.31,18.27 0.31,17.05 0.31,15.90 0.31,14.78 0.31,13.75 0.31,12.69 0.31,11.70 0.31,10.80 0.31,9.90 0.31,8.91 0.31,7.61 0.31,6.13 0.31,4.83 0.31,3.84 0.31,3.15 0.31,2.57 0.31,2.04 0.31,1.61 0.31,1.23 0.31,0.88 0.31,0.56 0.31,0.37 0.31,0.64 0.31,0.92 " fill="none" stroke="#1d1d1d" stroke-width="4" stroke-dasharray="none" stroke-dashoffset="none" stroke-linejoin="round" stroke-linecap="round" pointer-events="none"/></g></g><g id="4a1af5d4-3825-48ec-190c-d660493742d1_svg" class="tl-centered-g" transform="translate(17.15, 136.17) rotate(0.00, 38.50, 0.50)"><defs><mask id="4a1af5d4-3825-48ec-190c-d660493742d1_clip"><rect x="-100" y="-100" width="277" height="201" fill="white"/><rect x="38.5" y="0" width="0" height="0" rx="2.40" ry="2.40" fill="black" opacity="1"/></mask></defs><g pointer-events="none" opacity="1" mask=""><path d="M0,0L77,0" fill="#1d1d1d" stroke="#1d1d1d" stroke-width="4.23" stroke-dasharray="none" stroke-dashoffset="none" stroke-linecap="round" stroke-linejoin="round" pointer-events="stroke"/></g></g><g id="8396c835-0507-4579-0b77-9006d569e158_svg" class="tl-centered-g" transform="translate(461.38, 102.83) rotate(0.00, 13.96, 14.81)"><defs><mask id="8396c835-0507-4579-0b77-9006d569e158_clip"><rect x="-100" y="-100" width="227.91" height="229.63" fill="white"/><rect x="13.95" y="14.81" width="0" height="0" rx="2" ry="2" fill="black" opacity="1"/></mask></defs><g pointer-events="none" opacity="1" mask=""><path d="M0,29.63L27.91,0" fill="#1d1d1d" stroke="#1d1d1d" stroke-width="4.23" stroke-dasharray="none" stroke-dashoffset="none" stroke-linecap="round" stroke-linejoin="round" pointer-events="stroke"/></g></g><g id="db10976b-5be5-4593-3978-b5d4402d4d93_svg" class="tl-centered-g" transform="translate(94.31, 103.12) rotate(180.00, 0.50, 16.02)"><g opacity="1"><path d="M0.31,31.72 Q0.31,29.79 0.31,28.57 T0.31,25.98 0.31,23.52 0.31,21.47 0.31,19.72 0.31,18.27 0.31,17.05 0.31,15.90 0.31,14.78 0.31,13.75 0.31,12.69 0.31,11.70 0.31,10.80 0.31,9.90 0.31,8.91 0.31,7.61 0.31,6.13 0.31,4.83 0.31,3.84 0.31,3.15 0.31,2.57 0.31,2.04 0.31,1.61 0.31,1.23 0.31,0.88 0.31,0.56 0.31,0.37 0.31,0.64 0.31,0.92 " fill="none" stroke="none" stroke-width="4" stroke-linejoin="round" stroke-linecap="round" pointer-events="none"/><path d="M0.31,31.72 Q0.31,29.79 0.31,28.57 T0.31,25.98 0.31,23.52 0.31,21.47 0.31,19.72 0.31,18.27 0.31,17.05 0.31,15.90 0.31,14.78 0.31,13.75 0.31,12.69 0.31,11.70 0.31,10.80 0.31,9.90 0.31,8.91 0.31,7.61 0.31,6.13 0.31,4.83 0.31,3.84 0.31,3.15 0.31,2.57 0.31,2.04 0.31,1.61 0.31,1.23 0.31,0.88 0.31,0.56 0.31,0.37 0.31,0.64 0.31,0.92 " fill="none" stroke="#1d1d1d" stroke-width="4" stroke-dasharray="none" stroke-dashoffset="none" stroke-linejoin="round" stroke-linecap="round" pointer-events="none"/></g></g><g id="638ce847-c21e-48fb-3a7f-1a27c2fbac4e_svg" class="tl-centered-g" transform="translate(66.33, 104.16) rotate(0.00, 14.39, 15.68)"><defs><mask id="638ce847-c21e-48fb-3a7f-1a27c2fbac4e_clip"><rect x="-100" y="-100" width="228.79" height="231.35" fill="white"/><rect x="14.39" y="15.67" width="0" height="0" rx="2" ry="2" fill="black" opacity="1"/></mask></defs><g pointer-events="none" opacity="1" mask=""><path d="M0,0L28.79,31.35" fill="#1d1d1d" stroke="#1d1d1d" stroke-width="4.23" stroke-dasharray="none" stroke-dashoffset="none" stroke-linecap="round" stroke-linejoin="round" pointer-events="stroke"/></g></g><g id="10f976ea-ccec-4744-0954-94b557cef609_svg" class="tl-centered-g" transform="translate(70.01, 102.68) rotate(0.00, 11.30, 13.20)"><g opacity="1"><path d="M1.00,2.00 Q1.90,2.72 1.96,2.56 T1.93,2.22 1.70,1.94 1.47,1.92 1.35,2.23 1.46,2.98 1.84,3.97 2.27,4.74 2.69,5.13 3.05,4.94 3.25,4.20 3.18,3.22 2.79,2.23 2.21,1.50 1.62,1.19 1.17,1.37 0.96,2.19 1.11,3.40 1.82,4.48 3.07,4.67 4.15,3.96 4.58,3.18 4.50,2.56 4.10,2.09 3.56,1.82 3.04,1.95 2.89,2.78 3.21,3.95 3.96,4.87 5.32,5.24 6.79,5.00 7.73,4.33 8.03,3.47 7.79,2.68 7.04,2.06 6.04,1.76 5.21,2.23 4.80,3.38 4.94,4.64 5.64,5.74 6.74,6.39 8.06,6.26 9.20,5.56 9.74,4.73 9.63,3.78 8.81,2.89 7.78,2.49 7.07,3.08 6.77,4.21 6.87,5.28 7.33,6.32 8.21,7.07 9.51,7.17 10.85,6.42 11.81,5.21 12.21,3.91 11.58,2.61 10.20,1.75 8.99,1.68 8.19,2.23 7.97,3.29 8.39,4.55 9.24,5.56 10.48,6.11 11.83,6.15 12.94,5.77 13.68,5.07 13.96,4.10 13.62,2.94 12.80,1.93 11.91,1.47 11.19,1.75 10.79,2.62 10.75,3.69 11.09,4.72 11.76,5.52 12.85,5.91 14.26,5.55 15.40,4.59 15.71,3.38 15.17,2.23 14.24,1.59 13.33,1.86 12.82,3.04 13.26,4.59 14.35,5.85 15.54,6.36 16.77,5.75 17.68,4.43 17.91,3.21 17.50,2.18 16.70,1.56 15.89,1.85 15.40,2.85 15.49,4.04 16.03,5.10 16.82,5.68 17.71,5.73 18.55,5.32 19.25,4.37 19.63,3.13 19.62,2.00 19.03,1.15 18.12,1.08 17.62,2.21 17.61,3.68 17.87,4.85 18.47,5.77 19.42,6.05 20.49,5.63 21.30,4.76 21.79,3.66 21.88,2.52 21.53,1.52 20.85,0.84 19.98,0.69 19.49,1.90 19.50,3.78 19.68,5.04 20.22,5.65 21.02,5.36 21.68,4.48 22.09,3.42 22.23,2.42 21.99,1.92 21.55,2.18 21.08,3.58 20.60,6.32 20.20,9.75 19.93,13.22 19.83,16.43 19.86,18.92 20.01,20.57 20.28,21.39 20.64,21.21 21.03,20.22 21.19,19.41 21.15,19.36 21.08,19.91 21.09,20.85 21.18,21.72 21.33,22.43 21.49,23.00 21.68,23.45 21.87,23.92 22.02,24.36 22.14,24.69 22.26,24.96 22.32,25.20 22.36,25.52 22.38,25.87 22.34,26.06 22.19,25.76 21.97,24.53 21.80,22.28 21.67,19.47 21.55,15.90 21.48,12.55 21.49,10.51 21.58,9.39 21.77,9.62 21.96,11.27 22.07,13.56 22.08,16.04 22.00,18.30 21.91,19.96 21.91,20.74 21.86,19.20 21.61,15.89 21.29,13.03 21.03,11.05 20.66,10.76 20.32,12.39 20.27,14.76 20.42,17.11 20.63,19.03 20.84,20.40 21.00,21.34 21.05,21.86 20.94,22.06 20.74,22.12 20.59,22.20 20.46,22.33 20.34,22.50 20.28,22.68 20.20,22.78 19.98,22.65 19.58,22.32 18.92,21.59 17.97,20.43 16.82,18.99 15.25,16.98 13.57,14.75 12.33,12.98 11.51,11.65 10.97,10.69 10.76,10.42 11.49,11.62 13.29,14.12 15.22,16.53 16.46,17.90 15.99,17.32 13.53,14.31 10.97,11.00 10.40,10.37 11.56,12.04 12.88,13.77 13.92,14.95 14.40,15.37 13.82,14.67 12.24,12.94 10.30,10.91 8.69,9.34 7.62,8.47 7.16,8.39 7.54,9.29 8.55,10.82 9.56,12.20 10.29,13.09 10.61,13.19 9.71,11.76 8.18,9.72 7.12,8.32 6.53,7.51 6.69,7.50 8.35,9.20 10.92,11.93 13.06,14.02 14.02,14.41 13.29,12.62 11.69,9.70 10.75,7.87 11.31,8.60 12.78,11.06 14.45,13.85 15.99,16.20 16.94,17.23 16.79,16.23 15.76,13.80 14.44,11.03 13.30,8.73 12.63,7.29 12.88,7.69 14.01,9.98 15.44,12.94 16.72,15.56 17.52,17.10 17.96,17.64 17.39,15.56 16.14,11.82 15.27,9.13 14.79,7.50 14.66,6.83 15.08,7.62 16.16,10.39 17.34,13.66 18.13,15.56 18.38,15.49 18.12,13.79 17.58,11.20 17.05,8.60 16.80,6.81 16.94,6.18 17.55,7.62 18.38,10.48 19.10,13.17 19.68,15.15 20.00,15.58 19.73,13.71 19.18,11.06 18.79,9.02 18.61,7.85 18.83,8.99 19.26,11.90 19.59,14.36 19.78,15.86 19.88,15.88 19.84,14.23 19.69,11.67 19.56,9.26 19.49,7.67 19.54,6.79 19.88,7.78 20.34,10.92 20.63,14.00 20.80,15.61 20.66,14.80 20.32,12.43 20.09,10.58 20.23,10.63 20.62,12.41 20.92,14.19 21.18,15.36 21.41,15.29 21.50,14.04 21.36,12.46 21.20,11.45 21.20,11.34 21.29,11.77 21.36,12.93 21.40,13.80 " fill="none" stroke="none" stroke-width="4" stroke-linejoin="round" stroke-linecap="round" pointer-events="none"/><path d="M1.00,2.00 Q1.90,2.72 1.96,2.56 T1.93,2.22 1.70,1.94 1.47,1.92 1.35,2.23 1.46,2.98 1.84,3.97 2.27,4.74 2.69,5.13 3.05,4.94 3.25,4.20 3.18,3.22 2.79,2.23 2.21,1.50 1.62,1.19 1.17,1.37 0.96,2.19 1.11,3.40 1.82,4.48 3.07,4.67 4.15,3.96 4.58,3.18 4.50,2.56 4.10,2.09 3.56,1.82 3.04,1.95 2.89,2.78 3.21,3.95 3.96,4.87 5.32,5.24 6.79,5.00 7.73,4.33 8.03,3.47 7.79,2.68 7.04,2.06 6.04,1.76 5.21,2.23 4.80,3.38 4.94,4.64 5.64,5.74 6.74,6.39 8.06,6.26 9.20,5.56 9.74,4.73 9.63,3.78 8.81,2.89 7.78,2.49 7.07,3.08 6.77,4.21 6.87,5.28 7.33,6.32 8.21,7.07 9.51,7.17 10.85,6.42 11.81,5.21 12.21,3.91 11.58,2.61 10.20,1.75 8.99,1.68 8.19,2.23 7.97,3.29 8.39,4.55 9.24,5.56 10.48,6.11 11.83,6.15 12.94,5.77 13.68,5.07 13.96,4.10 13.62,2.94 12.80,1.93 11.91,1.47 11.19,1.75 10.79,2.62 10.75,3.69 11.09,4.72 11.76,5.52 12.85,5.91 14.26,5.55 15.40,4.59 15.71,3.38 15.17,2.23 14.24,1.59 13.33,1.86 12.82,3.04 13.26,4.59 14.35,5.85 15.54,6.36 16.77,5.75 17.68,4.43 17.91,3.21 17.50,2.18 16.70,1.56 15.89,1.85 15.40,2.85 15.49,4.04 16.03,5.10 16.82,5.68 17.71,5.73 18.55,5.32 19.25,4.37 19.63,3.13 19.62,2.00 19.03,1.15 18.12,1.08 17.62,2.21 17.61,3.68 17.87,4.85 18.47,5.77 19.42,6.05 20.49,5.63 21.30,4.76 21.79,3.66 21.88,2.52 21.53,1.52 20.85,0.84 19.98,0.69 19.49,1.90 19.50,3.78 19.68,5.04 20.22,5.65 21.02,5.36 21.68,4.48 22.09,3.42 22.23,2.42 21.99,1.92 21.55,2.18 21.08,3.58 20.60,6.32 20.20,9.75 19.93,13.22 19.83,16.43 19.86,18.92 20.01,20.57 20.28,21.39 20.64,21.21 21.03,20.22 21.19,19.41 21.15,19.36 21.08,19.91 21.09,20.85 21.18,21.72 21.33,22.43 21.49,23.00 21.68,23.45 21.87,23.92 22.02,24.36 22.14,24.69 22.26,24.96 22.32,25.20 22.36,25.52 22.38,25.87 22.34,26.06 22.19,25.76 21.97,24.53 21.80,22.28 21.67,19.47 21.55,15.90 21.48,12.55 21.49,10.51 21.58,9.39 21.77,9.62 21.96,11.27 22.07,13.56 22.08,16.04 22.00,18.30 21.91,19.96 21.91,20.74 21.86,19.20 21.61,15.89 21.29,13.03 21.03,11.05 20.66,10.76 20.32,12.39 20.27,14.76 20.42,17.11 20.63,19.03 20.84,20.40 21.00,21.34 21.05,21.86 20.94,22.06 20.74,22.12 20.59,22.20 20.46,22.33 20.34,22.50 20.28,22.68 20.20,22.78 19.98,22.65 19.58,22.32 18.92,21.59 17.97,20.43 16.82,18.99 15.25,16.98 13.57,14.75 12.33,12.98 11.51,11.65 10.97,10.69 10.76,10.42 11.49,11.62 13.29,14.12 15.22,16.53 16.46,17.90 15.99,17.32 13.53,14.31 10.97,11.00 10.40,10.37 11.56,12.04 12.88,13.77 13.92,14.95 14.40,15.37 13.82,14.67 12.24,12.94 10.30,10.91 8.69,9.34 7.62,8.47 7.16,8.39 7.54,9.29 8.55,10.82 9.56,12.20 10.29,13.09 10.61,13.19 9.71,11.76 8.18,9.72 7.12,8.32 6.53,7.51 6.69,7.50 8.35,9.20 10.92,11.93 13.06,14.02 14.02,14.41 13.29,12.62 11.69,9.70 10.75,7.87 11.31,8.60 12.78,11.06 14.45,13.85 15.99,16.20 16.94,17.23 16.79,16.23 15.76,13.80 14.44,11.03 13.30,8.73 12.63,7.29 12.88,7.69 14.01,9.98 15.44,12.94 16.72,15.56 17.52,17.10 17.96,17.64 17.39,15.56 16.14,11.82 15.27,9.13 14.79,7.50 14.66,6.83 15.08,7.62 16.16,10.39 17.34,13.66 18.13,15.56 18.38,15.49 18.12,13.79 17.58,11.20 17.05,8.60 16.80,6.81 16.94,6.18 17.55,7.62 18.38,10.48 19.10,13.17 19.68,15.15 20.00,15.58 19.73,13.71 19.18,11.06 18.79,9.02 18.61,7.85 18.83,8.99 19.26,11.90 19.59,14.36 19.78,15.86 19.88,15.88 19.84,14.23 19.69,11.67 19.56,9.26 19.49,7.67 19.54,6.79 19.88,7.78 20.34,10.92 20.63,14.00 20.80,15.61 20.66,14.80 20.32,12.43 20.09,10.58 20.23,10.63 20.62,12.41 20.92,14.19 21.18,15.36 21.41,15.29 21.50,14.04 21.36,12.46 21.20,11.45 21.20,11.34 21.29,11.77 21.36,12.93 21.40,13.80 " fill="none" stroke="#1d1d1d" stroke-width="4" stroke-dasharray="none" stroke-dashoffset="none" stroke-linejoin="round" stroke-linecap="round" pointer-events="none"/></g></g><g id="73c26480-b285-4059-34b0-fa502cf892cb_svg" class="tl-centered-g" transform="translate(92.56, 108.42) rotate(0.00, 0.50, 3.66)"><g opacity="1"><path d="M0.78,3.14 Q0.66,1.73 0.63,1.47 T0.64,1.75 0.70,3.13 0.68,4.65 0.61,5.79 0.57,6.06 0.49,5.52 0.33,4.45 0.18,3.16 0.10,2.10 0.06,1.46 0.15,1.63 0.31,2.42 0.41,3.15 0.48,2.51 0.52,1.57 " fill="none" stroke="none" stroke-width="4" stroke-linejoin="round" stroke-linecap="round" pointer-events="none"/><path d="M0.78,3.14 Q0.66,1.73 0.63,1.47 T0.64,1.75 0.70,3.13 0.68,4.65 0.61,5.79 0.57,6.06 0.49,5.52 0.33,4.45 0.18,3.16 0.10,2.10 0.06,1.46 0.15,1.63 0.31,2.42 0.41,3.15 0.48,2.51 0.52,1.57 " fill="none" stroke="#1d1d1d" stroke-width="4" stroke-dasharray="none" stroke-dashoffset="none" stroke-linejoin="round" stroke-linecap="round" pointer-events="none"/></g></g><g id="44b719dd-cd95-4a3b-2f7b-ba4a59050d92_svg" class="tl-centered-g" transform="translate(462.80, 101.99) rotate(0.00, 11.90, 13.00)"><g opacity="1"><path d="M3.40,13.00 Q2.86,15.24 2.80,15.90 T2.85,16.66 3.05,16.10 3.21,14.40 3.20,12.30 2.98,10.24 2.67,8.61 2.37,7.62 2.03,7.52 1.70,8.77 1.48,10.53 1.53,11.95 1.97,12.82 2.56,12.81 3.03,11.55 3.10,9.29 2.88,7.15 2.62,5.56 2.43,4.46 2.24,3.99 2.00,4.08 1.77,4.49 1.61,5.03 1.47,5.51 1.35,5.64 1.28,5.40 1.20,4.95 1.11,4.44 1.06,3.84 1.03,3.06 1.02,2.18 0.97,1.43 0.89,0.92 0.90,0.60 0.94,0.38 1.10,0.21 1.46,0.16 1.92,0.18 2.45,0.19 2.97,0.19 3.52,0.29 4.14,0.43 4.79,0.50 5.42,0.59 5.95,0.68 6.37,0.74 6.70,0.76 7.06,0.78 7.43,0.79 7.78,0.79 8.19,0.80 8.69,0.80 9.32,0.80 9.98,0.80 10.53,0.80 11.01,0.80 11.68,0.76 12.45,0.69 13.10,0.65 13.72,0.63 14.34,0.61 15.04,0.56 15.83,0.49 16.58,0.45 17.26,0.43 17.86,0.37 18.41,0.29 18.94,0.25 19.51,0.23 20.09,0.17 20.63,0.09 21.15,0.05 21.71,0.03 22.24,0.02 22.67,0.05 23.04,0.12 23.34,0.16 23.50,0.26 23.41,0.50 23.09,0.77 22.69,1.05 22.29,1.39 21.89,1.75 21.49,2.13 21.09,2.52 20.65,2.96 20.13,3.38 19.67,3.75 19.28,4.13 18.89,4.52 18.53,4.87 18.21,5.20 17.89,5.51 17.58,5.77 17.23,6.10 16.90,6.46 16.59,6.79 16.24,7.20 15.91,7.60 15.64,7.96 15.31,8.34 14.95,8.68 14.66,9.09 14.36,9.59 14.02,10.04 13.61,10.47 13.20,10.89 12.80,11.38 12.31,11.93 11.86,12.41 11.47,12.85 11.04,13.28 10.53,13.73 10.02,14.17 9.52,14.58 8.93,15.04 8.29,15.47 7.71,15.89 7.17,16.29 6.69,16.66 6.34,16.94 6.01,17.19 5.51,17.60 4.97,18.09 4.58,18.45 4.23,18.83 3.86,19.31 3.52,19.80 3.20,20.38 2.80,21.11 2.35,21.82 1.97,22.39 1.67,22.84 1.41,23.23 1.18,23.57 0.97,23.90 0.76,24.17 0.55,24.41 0.40,24.63 0.31,24.88 0.21,25.16 0.12,25.40 0.07,25.62 0.04,25.75 0.02,25.64 0.01,25.31 0.01,24.81 0.09,24.00 0.28,22.93 0.47,21.80 0.70,20.46 0.93,19.04 1.09,17.64 1.28,15.96 1.47,14.32 1.66,13.02 1.81,11.85 1.94,10.75 2.06,9.65 2.12,8.56 2.16,7.64 2.18,6.77 2.19,5.98 2.24,5.41 2.31,4.96 2.40,4.57 2.53,4.27 2.70,3.97 2.88,3.67 3.07,3.42 3.31,3.18 3.57,3.01 3.85,2.92 4.19,2.82 4.64,2.68 5.20,2.55 5.74,2.44 6.26,2.33 6.86,2.27 7.50,2.24 8.13,2.27 8.70,2.33 9.24,2.36 9.85,2.38 10.50,2.39 11.12,2.39 11.74,2.40 12.57,2.35 13.52,2.28 14.36,2.25 15.14,2.23 15.88,2.26 16.52,2.32 16.96,2.40 17.16,2.58 17.09,2.81 16.82,3.21 16.41,3.83 15.91,4.53 15.33,5.32 14.69,6.07 13.98,6.76 13.18,7.49 12.43,8.26 11.66,9.13 10.83,10.10 9.96,11.13 9.17,12.10 8.51,13.00 7.84,13.94 7.24,14.77 6.77,15.41 6.38,15.85 6.03,15.96 5.70,15.71 5.34,14.72 4.92,12.79 4.60,10.69 4.42,8.95 4.37,7.63 4.38,6.77 4.43,6.15 4.69,5.64 5.19,5.22 6.22,4.81 7.87,4.40 9.67,4.09 11.16,3.87 12.16,3.75 12.81,3.77 13.07,4.05 12.99,4.83 12.73,5.98 12.31,7.33 11.86,8.66 11.52,9.62 11.29,10.28 11.16,10.74 10.95,11.12 10.57,11.52 9.69,11.91 8.44,12.22 7.44,12.43 6.75,12.55 6.32,12.48 6.05,12.18 5.80,11.25 5.58,9.93 5.36,8.75 5.25,7.83 5.27,7.28 5.55,6.89 6.11,6.53 6.78,6.25 7.59,6.05 8.49,5.89 9.21,5.76 9.61,5.91 9.74,6.40 9.77,7.12 9.74,8.05 9.59,8.83 9.19,9.18 8.57,9.19 8.00,9.10 7.55,9.01 7.17,8.92 6.96,8.82 6.96,8.38 7.00,8.00 " fill="none" stroke="none" stroke-width="4" stroke-linejoin="round" stroke-linecap="round" pointer-events="none"/><path d="M3.40,13.00 Q2.86,15.24 2.80,15.90 T2.85,16.66 3.05,16.10 3.21,14.40 3.20,12.30 2.98,10.24 2.67,8.61 2.37,7.62 2.03,7.52 1.70,8.77 1.48,10.53 1.53,11.95 1.97,12.82 2.56,12.81 3.03,11.55 3.10,9.29 2.88,7.15 2.62,5.56 2.43,4.46 2.24,3.99 2.00,4.08 1.77,4.49 1.61,5.03 1.47,5.51 1.35,5.64 1.28,5.40 1.20,4.95 1.11,4.44 1.06,3.84 1.03,3.06 1.02,2.18 0.97,1.43 0.89,0.92 0.90,0.60 0.94,0.38 1.10,0.21 1.46,0.16 1.92,0.18 2.45,0.19 2.97,0.19 3.52,0.29 4.14,0.43 4.79,0.50 5.42,0.59 5.95,0.68 6.37,0.74 6.70,0.76 7.06,0.78 7.43,0.79 7.78,0.79 8.19,0.80 8.69,0.80 9.32,0.80 9.98,0.80 10.53,0.80 11.01,0.80 11.68,0.76 12.45,0.69 13.10,0.65 13.72,0.63 14.34,0.61 15.04,0.56 15.83,0.49 16.58,0.45 17.26,0.43 17.86,0.37 18.41,0.29 18.94,0.25 19.51,0.23 20.09,0.17 20.63,0.09 21.15,0.05 21.71,0.03 22.24,0.02 22.67,0.05 23.04,0.12 23.34,0.16 23.50,0.26 23.41,0.50 23.09,0.77 22.69,1.05 22.29,1.39 21.89,1.75 21.49,2.13 21.09,2.52 20.65,2.96 20.13,3.38 19.67,3.75 19.28,4.13 18.89,4.52 18.53,4.87 18.21,5.20 17.89,5.51 17.58,5.77 17.23,6.10 16.90,6.46 16.59,6.79 16.24,7.20 15.91,7.60 15.64,7.96 15.31,8.34 14.95,8.68 14.66,9.09 14.36,9.59 14.02,10.04 13.61,10.47 13.20,10.89 12.80,11.38 12.31,11.93 11.86,12.41 11.47,12.85 11.04,13.28 10.53,13.73 10.02,14.17 9.52,14.58 8.93,15.04 8.29,15.47 7.71,15.89 7.17,16.29 6.69,16.66 6.34,16.94 6.01,17.19 5.51,17.60 4.97,18.09 4.58,18.45 4.23,18.83 3.86,19.31 3.52,19.80 3.20,20.38 2.80,21.11 2.35,21.82 1.97,22.39 1.67,22.84 1.41,23.23 1.18,23.57 0.97,23.90 0.76,24.17 0.55,24.41 0.40,24.63 0.31,24.88 0.21,25.16 0.12,25.40 0.07,25.62 0.04,25.75 0.02,25.64 0.01,25.31 0.01,24.81 0.09,24.00 0.28,22.93 0.47,21.80 0.70,20.46 0.93,19.04 1.09,17.64 1.28,15.96 1.47,14.32 1.66,13.02 1.81,11.85 1.94,10.75 2.06,9.65 2.12,8.56 2.16,7.64 2.18,6.77 2.19,5.98 2.24,5.41 2.31,4.96 2.40,4.57 2.53,4.27 2.70,3.97 2.88,3.67 3.07,3.42 3.31,3.18 3.57,3.01 3.85,2.92 4.19,2.82 4.64,2.68 5.20,2.55 5.74,2.44 6.26,2.33 6.86,2.27 7.50,2.24 8.13,2.27 8.70,2.33 9.24,2.36 9.85,2.38 10.50,2.39 11.12,2.39 11.74,2.40 12.57,2.35 13.52,2.28 14.36,2.25 15.14,2.23 15.88,2.26 16.52,2.32 16.96,2.40 17.16,2.58 17.09,2.81 16.82,3.21 16.41,3.83 15.91,4.53 15.33,5.32 14.69,6.07 13.98,6.76 13.18,7.49 12.43,8.26 11.66,9.13 10.83,10.10 9.96,11.13 9.17,12.10 8.51,13.00 7.84,13.94 7.24,14.77 6.77,15.41 6.38,15.85 6.03,15.96 5.70,15.71 5.34,14.72 4.92,12.79 4.60,10.69 4.42,8.95 4.37,7.63 4.38,6.77 4.43,6.15 4.69,5.64 5.19,5.22 6.22,4.81 7.87,4.40 9.67,4.09 11.16,3.87 12.16,3.75 12.81,3.77 13.07,4.05 12.99,4.83 12.73,5.98 12.31,7.33 11.86,8.66 11.52,9.62 11.29,10.28 11.16,10.74 10.95,11.12 10.57,11.52 9.69,11.91 8.44,12.22 7.44,12.43 6.75,12.55 6.32,12.48 6.05,12.18 5.80,11.25 5.58,9.93 5.36,8.75 5.25,7.83 5.27,7.28 5.55,6.89 6.11,6.53 6.78,6.25 7.59,6.05 8.49,5.89 9.21,5.76 9.61,5.91 9.74,6.40 9.77,7.12 9.74,8.05 9.59,8.83 9.19,9.18 8.57,9.19 8.00,9.10 7.55,9.01 7.17,8.92 6.96,8.82 6.96,8.38 7.00,8.00 " fill="none" stroke="#1d1d1d" stroke-width="4" stroke-dasharray="none" stroke-dashoffset="none" stroke-linejoin="round" stroke-linecap="round" pointer-events="none"/></g></g><text font-size="48px" font-family="Caveat Brush" font-weight="normal" line-height="48px" letter-spacing="-0.03em" text-align="left" dominant-baseline="mathematical" alignment-baseline="mathematical" text-anchor="start" fill="#1d1d1d" transform="translate(78.41, 34.16) rotate(0.00, 199.00, 29.00)"><tspan y="24px" x="4">O folclore e a cultura pop
</tspan></text></g><g id="96f7ddc7-c7c0-4a57-0186-9cebde00fc8d_svg" class="tl-centered-g" transform="translate(489.36, 59.46) rotate(0.00, 24.95, 0.50)"><defs><mask id="96f7ddc7-c7c0-4a57-0186-9cebde00fc8d_clip"><rect x="-100" y="-100" width="249.91" height="201" fill="white"/><rect x="24.95" y="0" width="0" height="0" rx="2" ry="2" fill="black" opacity="1"/></mask></defs><g pointer-events="none" opacity="1" mask=""><path d="M0,0L49.91,0" fill="#1d1d1d" stroke="#1d1d1d" stroke-width="4.23" stroke-dasharray="none" stroke-dashoffset="none" stroke-linecap="round" stroke-linejoin="round" pointer-events="stroke"/></g></g><text font-size="48px" font-family="Caveat Brush" font-weight="normal" line-height="48px" letter-spacing="-0.03em" text-align="left" dominant-baseline="mathematical" alignment-baseline="mathematical" text-anchor="start" fill="#1d1d1d" transform="translate(16.00, 240.27) rotate(0.00, 76.00, 29.00)"><tspan y="24px" x="4">• Folclore
</tspan></text><g id="bf74c765-1bb9-4f79-1d33-72fed2af0ee5_svg" class="tl-centered-g" transform="translate(516.27, 59.77) rotate(0.00, 11.49, 19.90)"><defs><mask id="bf74c765-1bb9-4f79-1d33-72fed2af0ee5_clip"><rect x="-100" y="-100" width="222.98" height="239.8" fill="white"/><rect x="11.49" y="19.9" width="0" height="0" rx="2" ry="2" fill="black" opacity="1"/></mask></defs><g pointer-events="none" opacity="1" mask=""><path d="M22.98,0L0,39.8" fill="#1d1d1d" stroke="#1d1d1d" stroke-width="4.23" stroke-dasharray="none" stroke-dashoffset="none" stroke-linecap="round" stroke-linejoin="round" pointer-events="stroke"/></g></g><text font-size="48px" font-family="Caveat Brush" font-weight="normal" line-height="48px" letter-spacing="-0.03em" text-align="left" dominant-baseline="mathematical" alignment-baseline="mathematical" text-anchor="start" fill="#1d1d1d" transform="translate(221.71, 193.27) rotate(0.00, 110.00, 77.00)"><tspan y="24px" x="4">• "Folk": Povo 
 
</tspan><tspan y="72px" x="4">
• "Lore": Lição
</tspan></text><g id="692796d6-5f8d-4cb0-1ad8-d3c319e4ad73_svg" class="tl-centered-g" transform="translate(16.00, 61.73) rotate(0.00, 24.95, 0.50)"><defs><mask id="692796d6-5f8d-4cb0-1ad8-d3c319e4ad73_clip"><rect x="-100" y="-100" width="249.91" height="201" fill="white"/><rect x="24.95" y="0" width="0" height="0" rx="2" ry="2" fill="black" opacity="1"/></mask></defs><g pointer-events="none" opacity="1" mask=""><path d="M49.91,0L0,0" fill="#1d1d1d" stroke="#1d1d1d" stroke-width="4.23" stroke-dasharray="none" stroke-dashoffset="none" stroke-linecap="round" stroke-linejoin="round" pointer-events="stroke"/></g></g><g id="8eca214c-2bd8-4714-1e82-f6fec162c7be_svg" class="tl-centered-g" transform="translate(202.57, 184.76) rotate(0.00, 13.22, 0.50)"><defs><mask id="8eca214c-2bd8-4714-1e82-f6fec162c7be_clip"><rect x="-100" y="-100" width="226.45" height="201" fill="white"/><rect x="13.22" y="0" width="0" height="0" rx="2" ry="2" fill="black" opacity="1"/></mask></defs><g pointer-events="none" opacity="1" mask=""><path d="M26.45,0L0,0" fill="#1d1d1d" stroke="#1d1d1d" stroke-width="4.23" stroke-dasharray="none" stroke-dashoffset="none" stroke-linecap="round" stroke-linejoin="round" pointer-events="stroke"/></g></g><g id="0dc94b8f-2548-4a90-0488-4f495cda2e78_svg" class="tl-centered-g" transform="translate(515.54, 99.50) rotate(0.00, 12.01, 17.25)"><defs><mask id="0dc94b8f-2548-4a90-0488-4f495cda2e78_clip"><rect x="-100" y="-100" width="224.02" height="234.5" fill="white"/><rect x="12.01" y="17.25" width="0" height="0" rx="2" ry="2" fill="black" opacity="1"/></mask></defs><g pointer-events="none" opacity="1" mask=""><path d="M0,0L24.02,34.5" fill="#1d1d1d" stroke="#1d1d1d" stroke-width="4.23" stroke-dasharray="none" stroke-dashoffset="none" stroke-linecap="round" stroke-linejoin="round" pointer-events="stroke"/></g></g><g id="6c531298-e68d-45bb-3d72-7006d553c1e7_svg" class="tl-centered-g" transform="translate(202.57, 184.76) rotate(0.00, 0.50, 39.44)"><defs><mask id="6c531298-e68d-45bb-3d72-7006d553c1e7_clip"><rect x="-100" y="-100" width="201" height="278.87" fill="white"/><rect x="0" y="39.43" width="0" height="0" rx="2.46" ry="2.46" fill="black" opacity="1"/></mask></defs><g pointer-events="none" opacity="1" mask=""><path d="M0,78.87L0,0" fill="#1d1d1d" stroke="#1d1d1d" stroke-width="4.23" stroke-dasharray="none" stroke-dashoffset="none" stroke-linecap="round" stroke-linejoin="round" pointer-events="stroke"/></g></g><g id="561a68d7-21c2-475a-3579-ca5e02785e09_svg" class="tl-centered-g" transform="translate(16.76, 96.32) rotate(0.00, 11.49, 19.90)"><defs><mask id="561a68d7-21c2-475a-3579-ca5e02785e09_clip"><rect x="-100" y="-100" width="222.98" height="239.8" fill="white"/><rect x="11.49" y="19.9" width="0" height="0" rx="2" ry="2" fill="black" opacity="1"/></mask></defs><g pointer-events="none" opacity="1" mask=""><path d="M0,39.8L22.98,0" fill="#1d1d1d" stroke="#1d1d1d" stroke-width="4.23" stroke-dasharray="none" stroke-dashoffset="none" stroke-linecap="round" stroke-linejoin="round" pointer-events="stroke"/></g></g><g id="2c0a5342-bddb-40b6-3b9b-991f4994b05c_svg" class="tl-centered-g" transform="translate(185.52, 263.63) rotate(0.00, 8.53, 4.92)"><defs><mask id="2c0a5342-bddb-40b6-3b9b-991f4994b05c_clip"><rect x="-100" y="-100" width="217.05" height="209.84" fill="white"/><rect x="8.52" y="4.92" width="0" height="0" rx="2" ry="2" fill="black" opacity="1"/></mask></defs><g pointer-events="none" opacity="1" mask=""><path d="M17.05,0L0,9.84" fill="#1d1d1d" stroke="#1d1d1d" stroke-width="4.23" stroke-dasharray="none" stroke-dashoffset="none" stroke-linecap="round" stroke-linejoin="round" pointer-events="stroke"/></g></g><g id="18355f29-de1d-4efa-3d08-5f16e596f7fb_svg" class="tl-centered-g" transform="translate(462.61, 134.62) rotate(0.00, 38.50, 0.50)"><defs><mask id="18355f29-de1d-4efa-3d08-5f16e596f7fb_clip"><rect x="-100" y="-100" width="277" height="201" fill="white"/><rect x="38.5" y="0" width="0" height="0" rx="2.40" ry="2.40" fill="black" opacity="1"/></mask></defs><g pointer-events="none" opacity="1" mask=""><path d="M77,0L0,0" fill="#1d1d1d" stroke="#1d1d1d" stroke-width="4.23" stroke-dasharray="none" stroke-dashoffset="none" stroke-linecap="round" stroke-linejoin="round" pointer-events="stroke"/></g></g><g id="1ef03e50-6760-445a-0332-3359bb38681d_svg" class="tl-centered-g" transform="translate(185.52, 273.47) rotate(0.00, 9.11, 5.25)"><defs><mask id="1ef03e50-6760-445a-0332-3359bb38681d_clip"><rect x="-100" y="-100" width="218.21" height="210.51" fill="white"/><rect x="9.10" y="5.25" width="0" height="0" rx="2" ry="2" fill="black" opacity="1"/></mask></defs><g pointer-events="none" opacity="1" mask=""><path d="M18.21,10.51L0,0" fill="#1d1d1d" stroke="#1d1d1d" stroke-width="4.23" stroke-dasharray="none" stroke-dashoffset="none" stroke-linecap="round" stroke-linejoin="round" pointer-events="stroke"/></g></g><g id="b15ad5a8-9b33-430a-2f1c-1878d433ac46_svg" class="tl-centered-g" transform="translate(16.46, 61.88) rotate(0.00, 12.01, 17.25)"><defs><mask id="b15ad5a8-9b33-430a-2f1c-1878d433ac46_clip"><rect x="-100" y="-100" width="224.02" height="234.5" fill="white"/><rect x="12.01" y="17.25" width="0" height="0" rx="2" ry="2" fill="black" opacity="1"/></mask></defs><g pointer-events="none" opacity="1" mask=""><path d="M24.02,34.5L0,0" fill="#1d1d1d" stroke="#1d1d1d" stroke-width="4.23" stroke-dasharray="none" stroke-dashoffset="none" stroke-linecap="round" stroke-linejoin="round" pointer-events="stroke"/></g></g><g id="4cfcb056-c88b-479c-09b1-6c12136c88bf_svg" class="tl-centered-g" transform="translate(202.57, 283.17) rotate(0.00, 0.50, 39.44)"><defs><mask id="4cfcb056-c88b-479c-09b1-6c12136c88bf_clip"><rect x="-100" y="-100" width="201" height="278.87" fill="white"/><rect x="0" y="39.43" width="0" height="0" rx="2.46" ry="2.46" fill="black" opacity="1"/></mask></defs><g pointer-events="none" opacity="1" mask=""><path d="M0,78.87L0,0" fill="#1d1d1d" stroke="#1d1d1d" stroke-width="4.23" stroke-dasharray="none" stroke-dashoffset="none" stroke-linecap="round" stroke-linejoin="round" pointer-events="stroke"/></g></g><g id="10df4f55-5948-4dca-3425-8a2c53d2bab4_svg" class="tl-centered-g" transform="translate(461.38, 102.59) rotate(0.00, 0.50, 16.02)"><g opacity="1"><path d="M0.31,31.72 Q0.31,29.79 0.31,28.57 T0.31,25.98 0.31,23.52 0.31,21.47 0.31,19.72 0.31,18.27 0.31,17.05 0.31,15.90 0.31,14.78 0.31,13.75 0.31,12.69 0.31,11.70 0.31,10.80 0.31,9.90 0.31,8.91 0.31,7.61 0.31,6.13 0.31,4.83 0.31,3.84 0.31,3.15 0.31,2.57 0.31,2.04 0.31,1.61 0.31,1.23 0.31,0.88 0.31,0.56 0.31,0.37 0.31,0.64 0.31,0.92 " fill="none" stroke="none" stroke-width="4" stroke-linejoin="round" stroke-linecap="round" pointer-events="none"/><path d="M0.31,31.72 Q0.31,29.79 0.31,28.57 T0.31,25.98 0.31,23.52 0.31,21.47 0.31,19.72 0.31,18.27 0.31,17.05 0.31,15.90 0.31,14.78 0.31,13.75 0.31,12.69 0.31,11.70 0.31,10.80 0.31,9.90 0.31,8.91 0.31,7.61 0.31,6.13 0.31,4.83 0.31,3.84 0.31,3.15 0.31,2.57 0.31,2.04 0.31,1.61 0.31,1.23 0.31,0.88 0.31,0.56 0.31,0.37 0.31,0.64 0.31,0.92 " fill="none" stroke="#1d1d1d" stroke-width="4" stroke-dasharray="none" stroke-dashoffset="none" stroke-linejoin="round" stroke-linecap="round" pointer-events="none"/></g></g><g id="a1bb1c14-9aa4-46a1-02ea-a01212950627_svg" class="tl-centered-g" transform="translate(202.57, 363.58) rotate(0.00, 13.22, 0.50)"><defs><mask id="a1bb1c14-9aa4-46a1-02ea-a01212950627_clip"><rect x="-100" y="-100" width="226.45" height="201" fill="white"/><rect x="13.22" y="0" width="0" height="0" rx="2" ry="2" fill="black" opacity="1"/></mask></defs><g pointer-events="none" opacity="1" mask=""><path d="M26.45,0L0,0" fill="#1d1d1d" stroke="#1d1d1d" stroke-width="4.23" stroke-dasharray="none" stroke-dashoffset="none" stroke-linecap="round" stroke-linejoin="round" pointer-events="stroke"/></g></g><g id="4a1af5d4-3825-48ec-190c-d660493742d1_svg" class="tl-centered-g" transform="translate(17.15, 136.17) rotate(0.00, 38.50, 0.50)"><defs><mask id="4a1af5d4-3825-48ec-190c-d660493742d1_clip"><rect x="-100" y="-100" width="277" height="201" fill="white"/><rect x="38.5" y="0" width="0" height="0" rx="2.40" ry="2.40" fill="black" opacity="1"/></mask></defs><g pointer-events="none" opacity="1" mask=""><path d="M0,0L77,0" fill="#1d1d1d" stroke="#1d1d1d" stroke-width="4.23" stroke-dasharray="none" stroke-dashoffset="none" stroke-linecap="round" stroke-linejoin="round" pointer-events="stroke"/></g></g><g id="94bd4657-2215-4ffc-3aea-5139750a030a_svg" class="tl-centered-g" transform="translate(454.66, 275.65) rotate(0.00, 24.48, 24.48)"><defs><mask id="94bd4657-2215-4ffc-3aea-5139750a030a_clip"><rect x="-100" y="-100" width="248.95" height="248.95" fill="white"/><rect x="24.47" y="24.47" width="0" height="0" rx="2.16" ry="2.16" fill="black" opacity="1"/></mask></defs><g pointer-events="none" opacity="1" mask=""><path d="M0,48.95L48.95,0" fill="#1d1d1d" stroke="#1d1d1d" stroke-width="4.23" stroke-dasharray="none" stroke-dashoffset="none" stroke-linecap="round" stroke-linejoin="round" pointer-events="stroke"/></g></g><g id="8396c835-0507-4579-0b77-9006d569e158_svg" class="tl-centered-g" transform="translate(461.38, 102.83) rotate(0.00, 13.96, 14.81)"><defs><mask id="8396c835-0507-4579-0b77-9006d569e158_clip"><rect x="-100" y="-100" width="227.91" height="229.63" fill="white"/><rect x="13.95" y="14.81" width="0" height="0" rx="2" ry="2" fill="black" opacity="1"/></mask></defs><g pointer-events="none" opacity="1" mask=""><path d="M0,29.63L27.91,0" fill="#1d1d1d" stroke="#1d1d1d" stroke-width="4.23" stroke-dasharray="none" stroke-dashoffset="none" stroke-linecap="round" stroke-linejoin="round" pointer-events="stroke"/></g></g><g id="1420ce17-57df-4adb-3e18-8289bc04471e_svg" class="tl-centered-g" transform="translate(454.84, 226.88) rotate(0.00, 24.39, 24.39)"><defs><mask id="1420ce17-57df-4adb-3e18-8289bc04471e_clip"><rect x="-100" y="-100" width="248.77" height="248.77" fill="white"/><rect x="24.38" y="24.38" width="0" height="0" rx="2.15" ry="2.15" fill="black" opacity="1"/></mask></defs><g pointer-events="none" opacity="1" mask=""><path d="M0,0L48.77,48.77" fill="#1d1d1d" stroke="#1d1d1d" stroke-width="4.23" stroke-dasharray="none" stroke-dashoffset="none" stroke-linecap="round" stroke-linejoin="round" pointer-events="stroke"/></g></g><g id="db10976b-5be5-4593-3978-b5d4402d4d93_svg" class="tl-centered-g" transform="translate(94.31, 103.12) rotate(180.00, 0.50, 16.02)"><g opacity="1"><path d="M0.31,31.72 Q0.31,29.79 0.31,28.57 T0.31,25.98 0.31,23.52 0.31,21.47 0.31,19.72 0.31,18.27 0.31,17.05 0.31,15.90 0.31,14.78 0.31,13.75 0.31,12.69 0.31,11.70 0.31,10.80 0.31,9.90 0.31,8.91 0.31,7.61 0.31,6.13 0.31,4.83 0.31,3.84 0.31,3.15 0.31,2.57 0.31,2.04 0.31,1.61 0.31,1.23 0.31,0.88 0.31,0.56 0.31,0.37 0.31,0.64 0.31,0.92 " fill="none" stroke="none" stroke-width="4" stroke-linejoin="round" stroke-linecap="round" pointer-events="none"/><path d="M0.31,31.72 Q0.31,29.79 0.31,28.57 T0.31,25.98 0.31,23.52 0.31,21.47 0.31,19.72 0.31,18.27 0.31,17.05 0.31,15.90 0.31,14.78 0.31,13.75 0.31,12.69 0.31,11.70 0.31,10.80 0.31,9.90 0.31,8.91 0.31,7.61 0.31,6.13 0.31,4.83 0.31,3.84 0.31,3.15 0.31,2.57 0.31,2.04 0.31,1.61 0.31,1.23 0.31,0.88 0.31,0.56 0.31,0.37 0.31,0.64 0.31,0.92 " fill="none" stroke="#1d1d1d" stroke-width="4" stroke-dasharray="none" stroke-dashoffset="none" stroke-linejoin="round" stroke-linecap="round" pointer-events="none"/></g></g><text font-size="48px" font-family="Caveat Brush" font-weight="normal" line-height="48px" letter-spacing="-0.03em" text-align="left" dominant-baseline="mathematical" alignment-baseline="mathematical" text-anchor="start" fill="#1d1d1d" transform="translate(514.78, 240.27) rotate(0.00, 128.50, 29.00)"><tspan y="24px" x="4">Cultura popular
</tspan></text><g id="638ce847-c21e-48fb-3a7f-1a27c2fbac4e_svg" class="tl-centered-g" transform="translate(66.33, 104.16) rotate(0.00, 14.39, 15.68)"><defs><mask id="638ce847-c21e-48fb-3a7f-1a27c2fbac4e_clip"><rect x="-100" y="-100" width="228.79" height="231.35" fill="white"/><rect x="14.39" y="15.67" width="0" height="0" rx="2" ry="2" fill="black" opacity="1"/></mask></defs><g pointer-events="none" opacity="1" mask=""><path d="M0,0L28.79,31.35" fill="#1d1d1d" stroke="#1d1d1d" stroke-width="4.23" stroke-dasharray="none" stroke-dashoffset="none" stroke-linecap="round" stroke-linejoin="round" pointer-events="stroke"/></g></g><g id="59e350d1-29b3-4444-10f4-aa6e8aa53219_svg" class="tl-centered-g" transform="translate(783.96, 272.03) rotate(0.00, 22.46, 0.50)"><defs><mask id="59e350d1-29b3-4444-10f4-aa6e8aa53219_clip"><rect x="-100" y="-100" width="244.92" height="201" fill="white"/><rect x="22.46" y="0" width="0" height="0" rx="2" ry="2" fill="black" opacity="1"/></mask></defs><g pointer-events="none" opacity="1" mask=""><path d="M0,0L44.92,0" fill="#1d1d1d" stroke="#1d1d1d" stroke-width="4.23" stroke-dasharray="none" stroke-dashoffset="none" stroke-linecap="round" stroke-linejoin="round" pointer-events="stroke"/></g></g><g id="10f976ea-ccec-4744-0954-94b557cef609_svg" class="tl-centered-g" transform="translate(70.01, 102.68) rotate(0.00, 11.30, 13.20)"><g opacity="1"><path d="M1.00,2.00 Q1.90,2.72 1.96,2.56 T1.93,2.22 1.70,1.94 1.47,1.92 1.35,2.23 1.46,2.98 1.84,3.97 2.27,4.74 2.69,5.13 3.05,4.94 3.25,4.20 3.18,3.22 2.79,2.23 2.21,1.50 1.62,1.19 1.17,1.37 0.96,2.19 1.11,3.40 1.82,4.48 3.07,4.67 4.15,3.96 4.58,3.18 4.50,2.56 4.10,2.09 3.56,1.82 3.04,1.95 2.89,2.78 3.21,3.95 3.96,4.87 5.32,5.24 6.79,5.00 7.73,4.33 8.03,3.47 7.79,2.68 7.04,2.06 6.04,1.76 5.21,2.23 4.80,3.38 4.94,4.64 5.64,5.74 6.74,6.39 8.06,6.26 9.20,5.56 9.74,4.73 9.63,3.78 8.81,2.89 7.78,2.49 7.07,3.08 6.77,4.21 6.87,5.28 7.33,6.32 8.21,7.07 9.51,7.17 10.85,6.42 11.81,5.21 12.21,3.91 11.58,2.61 10.20,1.75 8.99,1.68 8.19,2.23 7.97,3.29 8.39,4.55 9.24,5.56 10.48,6.11 11.83,6.15 12.94,5.77 13.68,5.07 13.96,4.10 13.62,2.94 12.80,1.93 11.91,1.47 11.19,1.75 10.79,2.62 10.75,3.69 11.09,4.72 11.76,5.52 12.85,5.91 14.26,5.55 15.40,4.59 15.71,3.38 15.17,2.23 14.24,1.59 13.33,1.86 12.82,3.04 13.26,4.59 14.35,5.85 15.54,6.36 16.77,5.75 17.68,4.43 17.91,3.21 17.50,2.18 16.70,1.56 15.89,1.85 15.40,2.85 15.49,4.04 16.03,5.10 16.82,5.68 17.71,5.73 18.55,5.32 19.25,4.37 19.63,3.13 19.62,2.00 19.03,1.15 18.12,1.08 17.62,2.21 17.61,3.68 17.87,4.85 18.47,5.77 19.42,6.05 20.49,5.63 21.30,4.76 21.79,3.66 21.88,2.52 21.53,1.52 20.85,0.84 19.98,0.69 19.49,1.90 19.50,3.78 19.68,5.04 20.22,5.65 21.02,5.36 21.68,4.48 22.09,3.42 22.23,2.42 21.99,1.92 21.55,2.18 21.08,3.58 20.60,6.32 20.20,9.75 19.93,13.22 19.83,16.43 19.86,18.92 20.01,20.57 20.28,21.39 20.64,21.21 21.03,20.22 21.19,19.41 21.15,19.36 21.08,19.91 21.09,20.85 21.18,21.72 21.33,22.43 21.49,23.00 21.68,23.45 21.87,23.92 22.02,24.36 22.14,24.69 22.26,24.96 22.32,25.20 22.36,25.52 22.38,25.87 22.34,26.06 22.19,25.76 21.97,24.53 21.80,22.28 21.67,19.47 21.55,15.90 21.48,12.55 21.49,10.51 21.58,9.39 21.77,9.62 21.96,11.27 22.07,13.56 22.08,16.04 22.00,18.30 21.91,19.96 21.91,20.74 21.86,19.20 21.61,15.89 21.29,13.03 21.03,11.05 20.66,10.76 20.32,12.39 20.27,14.76 20.42,17.11 20.63,19.03 20.84,20.40 21.00,21.34 21.05,21.86 20.94,22.06 20.74,22.12 20.59,22.20 20.46,22.33 20.34,22.50 20.28,22.68 20.20,22.78 19.98,22.65 19.58,22.32 18.92,21.59 17.97,20.43 16.82,18.99 15.25,16.98 13.57,14.75 12.33,12.98 11.51,11.65 10.97,10.69 10.76,10.42 11.49,11.62 13.29,14.12 15.22,16.53 16.46,17.90 15.99,17.32 13.53,14.31 10.97,11.00 10.40,10.37 11.56,12.04 12.88,13.77 13.92,14.95 14.40,15.37 13.82,14.67 12.24,12.94 10.30,10.91 8.69,9.34 7.62,8.47 7.16,8.39 7.54,9.29 8.55,10.82 9.56,12.20 10.29,13.09 10.61,13.19 9.71,11.76 8.18,9.72 7.12,8.32 6.53,7.51 6.69,7.50 8.35,9.20 10.92,11.93 13.06,14.02 14.02,14.41 13.29,12.62 11.69,9.70 10.75,7.87 11.31,8.60 12.78,11.06 14.45,13.85 15.99,16.20 16.94,17.23 16.79,16.23 15.76,13.80 14.44,11.03 13.30,8.73 12.63,7.29 12.88,7.69 14.01,9.98 15.44,12.94 16.72,15.56 17.52,17.10 17.96,17.64 17.39,15.56 16.14,11.82 15.27,9.13 14.79,7.50 14.66,6.83 15.08,7.62 16.16,10.39 17.34,13.66 18.13,15.56 18.38,15.49 18.12,13.79 17.58,11.20 17.05,8.60 16.80,6.81 16.94,6.18 17.55,7.62 18.38,10.48 19.10,13.17 19.68,15.15 20.00,15.58 19.73,13.71 19.18,11.06 18.79,9.02 18.61,7.85 18.83,8.99 19.26,11.90 19.59,14.36 19.78,15.86 19.88,15.88 19.84,14.23 19.69,11.67 19.56,9.26 19.49,7.67 19.54,6.79 19.88,7.78 20.34,10.92 20.63,14.00 20.80,15.61 20.66,14.80 20.32,12.43 20.09,10.58 20.23,10.63 20.62,12.41 20.92,14.19 21.18,15.36 21.41,15.29 21.50,14.04 21.36,12.46 21.20,11.45 21.20,11.34 21.29,11.77 21.36,12.93 21.40,13.80 " fill="none" stroke="none" stroke-width="4" stroke-linejoin="round" stroke-linecap="round" pointer-events="none"/><path d="M1.00,2.00 Q1.90,2.72 1.96,2.56 T1.93,2.22 1.70,1.94 1.47,1.92 1.35,2.23 1.46,2.98 1.84,3.97 2.27,4.74 2.69,5.13 3.05,4.94 3.25,4.20 3.18,3.22 2.79,2.23 2.21,1.50 1.62,1.19 1.17,1.37 0.96,2.19 1.11,3.40 1.82,4.48 3.07,4.67 4.15,3.96 4.58,3.18 4.50,2.56 4.10,2.09 3.56,1.82 3.04,1.95 2.89,2.78 3.21,3.95 3.96,4.87 5.32,5.24 6.79,5.00 7.73,4.33 8.03,3.47 7.79,2.68 7.04,2.06 6.04,1.76 5.21,2.23 4.80,3.38 4.94,4.64 5.64,5.74 6.74,6.39 8.06,6.26 9.20,5.56 9.74,4.73 9.63,3.78 8.81,2.89 7.78,2.49 7.07,3.08 6.77,4.21 6.87,5.28 7.33,6.32 8.21,7.07 9.51,7.17 10.85,6.42 11.81,5.21 12.21,3.91 11.58,2.61 10.20,1.75 8.99,1.68 8.19,2.23 7.97,3.29 8.39,4.55 9.24,5.56 10.48,6.11 11.83,6.15 12.94,5.77 13.68,5.07 13.96,4.10 13.62,2.94 12.80,1.93 11.91,1.47 11.19,1.75 10.79,2.62 10.75,3.69 11.09,4.72 11.76,5.52 12.85,5.91 14.26,5.55 15.40,4.59 15.71,3.38 15.17,2.23 14.24,1.59 13.33,1.86 12.82,3.04 13.26,4.59 14.35,5.85 15.54,6.36 16.77,5.75 17.68,4.43 17.91,3.21 17.50,2.18 16.70,1.56 15.89,1.85 15.40,2.85 15.49,4.04 16.03,5.10 16.82,5.68 17.71,5.73 18.55,5.32 19.25,4.37 19.63,3.13 19.62,2.00 19.03,1.15 18.12,1.08 17.62,2.21 17.61,3.68 17.87,4.85 18.47,5.77 19.42,6.05 20.49,5.63 21.30,4.76 21.79,3.66 21.88,2.52 21.53,1.52 20.85,0.84 19.98,0.69 19.49,1.90 19.50,3.78 19.68,5.04 20.22,5.65 21.02,5.36 21.68,4.48 22.09,3.42 22.23,2.42 21.99,1.92 21.55,2.18 21.08,3.58 20.60,6.32 20.20,9.75 19.93,13.22 19.83,16.43 19.86,18.92 20.01,20.57 20.28,21.39 20.64,21.21 21.03,20.22 21.19,19.41 21.15,19.36 21.08,19.91 21.09,20.85 21.18,21.72 21.33,22.43 21.49,23.00 21.68,23.45 21.87,23.92 22.02,24.36 22.14,24.69 22.26,24.96 22.32,25.20 22.36,25.52 22.38,25.87 22.34,26.06 22.19,25.76 21.97,24.53 21.80,22.28 21.67,19.47 21.55,15.90 21.48,12.55 21.49,10.51 21.58,9.39 21.77,9.62 21.96,11.27 22.07,13.56 22.08,16.04 22.00,18.30 21.91,19.96 21.91,20.74 21.86,19.20 21.61,15.89 21.29,13.03 21.03,11.05 20.66,10.76 20.32,12.39 20.27,14.76 20.42,17.11 20.63,19.03 20.84,20.40 21.00,21.34 21.05,21.86 20.94,22.06 20.74,22.12 20.59,22.20 20.46,22.33 20.34,22.50 20.28,22.68 20.20,22.78 19.98,22.65 19.58,22.32 18.92,21.59 17.97,20.43 16.82,18.99 15.25,16.98 13.57,14.75 12.33,12.98 11.51,11.65 10.97,10.69 10.76,10.42 11.49,11.62 13.29,14.12 15.22,16.53 16.46,17.90 15.99,17.32 13.53,14.31 10.97,11.00 10.40,10.37 11.56,12.04 12.88,13.77 13.92,14.95 14.40,15.37 13.82,14.67 12.24,12.94 10.30,10.91 8.69,9.34 7.62,8.47 7.16,8.39 7.54,9.29 8.55,10.82 9.56,12.20 10.29,13.09 10.61,13.19 9.71,11.76 8.18,9.72 7.12,8.32 6.53,7.51 6.69,7.50 8.35,9.20 10.92,11.93 13.06,14.02 14.02,14.41 13.29,12.62 11.69,9.70 10.75,7.87 11.31,8.60 12.78,11.06 14.45,13.85 15.99,16.20 16.94,17.23 16.79,16.23 15.76,13.80 14.44,11.03 13.30,8.73 12.63,7.29 12.88,7.69 14.01,9.98 15.44,12.94 16.72,15.56 17.52,17.10 17.96,17.64 17.39,15.56 16.14,11.82 15.27,9.13 14.79,7.50 14.66,6.83 15.08,7.62 16.16,10.39 17.34,13.66 18.13,15.56 18.38,15.49 18.12,13.79 17.58,11.20 17.05,8.60 16.80,6.81 16.94,6.18 17.55,7.62 18.38,10.48 19.10,13.17 19.68,15.15 20.00,15.58 19.73,13.71 19.18,11.06 18.79,9.02 18.61,7.85 18.83,8.99 19.26,11.90 19.59,14.36 19.78,15.86 19.88,15.88 19.84,14.23 19.69,11.67 19.56,9.26 19.49,7.67 19.54,6.79 19.88,7.78 20.34,10.92 20.63,14.00 20.80,15.61 20.66,14.80 20.32,12.43 20.09,10.58 20.23,10.63 20.62,12.41 20.92,14.19 21.18,15.36 21.41,15.29 21.50,14.04 21.36,12.46 21.20,11.45 21.20,11.34 21.29,11.77 21.36,12.93 21.40,13.80 " fill="none" stroke="#1d1d1d" stroke-width="4" stroke-dasharray="none" stroke-dashoffset="none" stroke-linejoin="round" stroke-linecap="round" pointer-events="none"/></g></g><g id="2f4a726a-afc5-415b-084c-c13bed338be3_svg" class="tl-centered-g" transform="translate(783.96, 281.01) rotate(0.00, 22.46, 0.50)"><defs><mask id="2f4a726a-afc5-415b-084c-c13bed338be3_clip"><rect x="-100" y="-100" width="244.92" height="201" fill="white"/><rect x="22.46" y="0" width="0" height="0" rx="2" ry="2" fill="black" opacity="1"/></mask></defs><g pointer-events="none" opacity="1" mask=""><path d="M0,0L44.92,0" fill="#1d1d1d" stroke="#1d1d1d" stroke-width="4.23" stroke-dasharray="none" stroke-dashoffset="none" stroke-linecap="round" stroke-linejoin="round" pointer-events="stroke"/></g></g><g id="73c26480-b285-4059-34b0-fa502cf892cb_svg" class="tl-centered-g" transform="translate(92.56, 108.42) rotate(0.00, 0.50, 3.66)"><g opacity="1"><path d="M0.78,3.14 Q0.66,1.73 0.63,1.47 T0.64,1.75 0.70,3.13 0.68,4.65 0.61,5.79 0.57,6.06 0.49,5.52 0.33,4.45 0.18,3.16 0.10,2.10 0.06,1.46 0.15,1.63 0.31,2.42 0.41,3.15 0.48,2.51 0.52,1.57 " fill="none" stroke="none" stroke-width="4" stroke-linejoin="round" stroke-linecap="round" pointer-events="none"/><path d="M0.78,3.14 Q0.66,1.73 0.63,1.47 T0.64,1.75 0.70,3.13 0.68,4.65 0.61,5.79 0.57,6.06 0.49,5.52 0.33,4.45 0.18,3.16 0.10,2.10 0.06,1.46 0.15,1.63 0.31,2.42 0.41,3.15 0.48,2.51 0.52,1.57 " fill="none" stroke="#1d1d1d" stroke-width="4" stroke-dasharray="none" stroke-dashoffset="none" stroke-linejoin="round" stroke-linecap="round" pointer-events="none"/></g></g><g id="03154d1a-963f-4f24-0a6c-042272d21892_svg" class="tl-centered-g" transform="translate(812.66, 260.05) rotate(0.00, 13.46, 15.94)"><g opacity="1"><path d="M4.49,30.97 Q7.90,28.16 11.06,26.28 T16.76,22.95 21.01,20.52 23.56,18.97 23.46,17.71 20.19,15.41 15.37,11.83 10.70,8.24 4.26,3.32 0.00,0.00 " fill="none" stroke="none" stroke-width="4" stroke-linejoin="round" stroke-linecap="round" pointer-events="none"/><path d="M4.49,30.97 Q7.90,28.16 11.06,26.28 T16.76,22.95 21.01,20.52 23.56,18.97 23.46,17.71 20.19,15.41 15.37,11.83 10.70,8.24 4.26,3.32 0.00,0.00 " fill="none" stroke="#1d1d1d" stroke-width="4" stroke-dasharray="none" stroke-dashoffset="none" stroke-linejoin="round" stroke-linecap="round" pointer-events="none"/></g></g><g id="44b719dd-cd95-4a3b-2f7b-ba4a59050d92_svg" class="tl-centered-g" transform="translate(462.80, 101.99) rotate(0.00, 11.90, 13.00)"><g opacity="1"><path d="M3.40,13.00 Q2.86,15.24 2.80,15.90 T2.85,16.66 3.05,16.10 3.21,14.40 3.20,12.30 2.98,10.24 2.67,8.61 2.37,7.62 2.03,7.52 1.70,8.77 1.48,10.53 1.53,11.95 1.97,12.82 2.56,12.81 3.03,11.55 3.10,9.29 2.88,7.15 2.62,5.56 2.43,4.46 2.24,3.99 2.00,4.08 1.77,4.49 1.61,5.03 1.47,5.51 1.35,5.64 1.28,5.40 1.20,4.95 1.11,4.44 1.06,3.84 1.03,3.06 1.02,2.18 0.97,1.43 0.89,0.92 0.90,0.60 0.94,0.38 1.10,0.21 1.46,0.16 1.92,0.18 2.45,0.19 2.97,0.19 3.52,0.29 4.14,0.43 4.79,0.50 5.42,0.59 5.95,0.68 6.37,0.74 6.70,0.76 7.06,0.78 7.43,0.79 7.78,0.79 8.19,0.80 8.69,0.80 9.32,0.80 9.98,0.80 10.53,0.80 11.01,0.80 11.68,0.76 12.45,0.69 13.10,0.65 13.72,0.63 14.34,0.61 15.04,0.56 15.83,0.49 16.58,0.45 17.26,0.43 17.86,0.37 18.41,0.29 18.94,0.25 19.51,0.23 20.09,0.17 20.63,0.09 21.15,0.05 21.71,0.03 22.24,0.02 22.67,0.05 23.04,0.12 23.34,0.16 23.50,0.26 23.41,0.50 23.09,0.77 22.69,1.05 22.29,1.39 21.89,1.75 21.49,2.13 21.09,2.52 20.65,2.96 20.13,3.38 19.67,3.75 19.28,4.13 18.89,4.52 18.53,4.87 18.21,5.20 17.89,5.51 17.58,5.77 17.23,6.10 16.90,6.46 16.59,6.79 16.24,7.20 15.91,7.60 15.64,7.96 15.31,8.34 14.95,8.68 14.66,9.09 14.36,9.59 14.02,10.04 13.61,10.47 13.20,10.89 12.80,11.38 12.31,11.93 11.86,12.41 11.47,12.85 11.04,13.28 10.53,13.73 10.02,14.17 9.52,14.58 8.93,15.04 8.29,15.47 7.71,15.89 7.17,16.29 6.69,16.66 6.34,16.94 6.01,17.19 5.51,17.60 4.97,18.09 4.58,18.45 4.23,18.83 3.86,19.31 3.52,19.80 3.20,20.38 2.80,21.11 2.35,21.82 1.97,22.39 1.67,22.84 1.41,23.23 1.18,23.57 0.97,23.90 0.76,24.17 0.55,24.41 0.40,24.63 0.31,24.88 0.21,25.16 0.12,25.40 0.07,25.62 0.04,25.75 0.02,25.64 0.01,25.31 0.01,24.81 0.09,24.00 0.28,22.93 0.47,21.80 0.70,20.46 0.93,19.04 1.09,17.64 1.28,15.96 1.47,14.32 1.66,13.02 1.81,11.85 1.94,10.75 2.06,9.65 2.12,8.56 2.16,7.64 2.18,6.77 2.19,5.98 2.24,5.41 2.31,4.96 2.40,4.57 2.53,4.27 2.70,3.97 2.88,3.67 3.07,3.42 3.31,3.18 3.57,3.01 3.85,2.92 4.19,2.82 4.64,2.68 5.20,2.55 5.74,2.44 6.26,2.33 6.86,2.27 7.50,2.24 8.13,2.27 8.70,2.33 9.24,2.36 9.85,2.38 10.50,2.39 11.12,2.39 11.74,2.40 12.57,2.35 13.52,2.28 14.36,2.25 15.14,2.23 15.88,2.26 16.52,2.32 16.96,2.40 17.16,2.58 17.09,2.81 16.82,3.21 16.41,3.83 15.91,4.53 15.33,5.32 14.69,6.07 13.98,6.76 13.18,7.49 12.43,8.26 11.66,9.13 10.83,10.10 9.96,11.13 9.17,12.10 8.51,13.00 7.84,13.94 7.24,14.77 6.77,15.41 6.38,15.85 6.03,15.96 5.70,15.71 5.34,14.72 4.92,12.79 4.60,10.69 4.42,8.95 4.37,7.63 4.38,6.77 4.43,6.15 4.69,5.64 5.19,5.22 6.22,4.81 7.87,4.40 9.67,4.09 11.16,3.87 12.16,3.75 12.81,3.77 13.07,4.05 12.99,4.83 12.73,5.98 12.31,7.33 11.86,8.66 11.52,9.62 11.29,10.28 11.16,10.74 10.95,11.12 10.57,11.52 9.69,11.91 8.44,12.22 7.44,12.43 6.75,12.55 6.32,12.48 6.05,12.18 5.80,11.25 5.58,9.93 5.36,8.75 5.25,7.83 5.27,7.28 5.55,6.89 6.11,6.53 6.78,6.25 7.59,6.05 8.49,5.89 9.21,5.76 9.61,5.91 9.74,6.40 9.77,7.12 9.74,8.05 9.59,8.83 9.19,9.18 8.57,9.19 8.00,9.10 7.55,9.01 7.17,8.92 6.96,8.82 6.96,8.38 7.00,8.00 " fill="none" stroke="none" stroke-width="4" stroke-linejoin="round" stroke-linecap="round" pointer-events="none"/><path d="M3.40,13.00 Q2.86,15.24 2.80,15.90 T2.85,16.66 3.05,16.10 3.21,14.40 3.20,12.30 2.98,10.24 2.67,8.61 2.37,7.62 2.03,7.52 1.70,8.77 1.48,10.53 1.53,11.95 1.97,12.82 2.56,12.81 3.03,11.55 3.10,9.29 2.88,7.15 2.62,5.56 2.43,4.46 2.24,3.99 2.00,4.08 1.77,4.49 1.61,5.03 1.47,5.51 1.35,5.64 1.28,5.40 1.20,4.95 1.11,4.44 1.06,3.84 1.03,3.06 1.02,2.18 0.97,1.43 0.89,0.92 0.90,0.60 0.94,0.38 1.10,0.21 1.46,0.16 1.92,0.18 2.45,0.19 2.97,0.19 3.52,0.29 4.14,0.43 4.79,0.50 5.42,0.59 5.95,0.68 6.37,0.74 6.70,0.76 7.06,0.78 7.43,0.79 7.78,0.79 8.19,0.80 8.69,0.80 9.32,0.80 9.98,0.80 10.53,0.80 11.01,0.80 11.68,0.76 12.45,0.69 13.10,0.65 13.72,0.63 14.34,0.61 15.04,0.56 15.83,0.49 16.58,0.45 17.26,0.43 17.86,0.37 18.41,0.29 18.94,0.25 19.51,0.23 20.09,0.17 20.63,0.09 21.15,0.05 21.71,0.03 22.24,0.02 22.67,0.05 23.04,0.12 23.34,0.16 23.50,0.26 23.41,0.50 23.09,0.77 22.69,1.05 22.29,1.39 21.89,1.75 21.49,2.13 21.09,2.52 20.65,2.96 20.13,3.38 19.67,3.75 19.28,4.13 18.89,4.52 18.53,4.87 18.21,5.20 17.89,5.51 17.58,5.77 17.23,6.10 16.90,6.46 16.59,6.79 16.24,7.20 15.91,7.60 15.64,7.96 15.31,8.34 14.95,8.68 14.66,9.09 14.36,9.59 14.02,10.04 13.61,10.47 13.20,10.89 12.80,11.38 12.31,11.93 11.86,12.41 11.47,12.85 11.04,13.28 10.53,13.73 10.02,14.17 9.52,14.58 8.93,15.04 8.29,15.47 7.71,15.89 7.17,16.29 6.69,16.66 6.34,16.94 6.01,17.19 5.51,17.60 4.97,18.09 4.58,18.45 4.23,18.83 3.86,19.31 3.52,19.80 3.20,20.38 2.80,21.11 2.35,21.82 1.97,22.39 1.67,22.84 1.41,23.23 1.18,23.57 0.97,23.90 0.76,24.17 0.55,24.41 0.40,24.63 0.31,24.88 0.21,25.16 0.12,25.40 0.07,25.62 0.04,25.75 0.02,25.64 0.01,25.31 0.01,24.81 0.09,24.00 0.28,22.93 0.47,21.80 0.70,20.46 0.93,19.04 1.09,17.64 1.28,15.96 1.47,14.32 1.66,13.02 1.81,11.85 1.94,10.75 2.06,9.65 2.12,8.56 2.16,7.64 2.18,6.77 2.19,5.98 2.24,5.41 2.31,4.96 2.40,4.57 2.53,4.27 2.70,3.97 2.88,3.67 3.07,3.42 3.31,3.18 3.57,3.01 3.85,2.92 4.19,2.82 4.64,2.68 5.20,2.55 5.74,2.44 6.26,2.33 6.86,2.27 7.50,2.24 8.13,2.27 8.70,2.33 9.24,2.36 9.85,2.38 10.50,2.39 11.12,2.39 11.74,2.40 12.57,2.35 13.52,2.28 14.36,2.25 15.14,2.23 15.88,2.26 16.52,2.32 16.96,2.40 17.16,2.58 17.09,2.81 16.82,3.21 16.41,3.83 15.91,4.53 15.33,5.32 14.69,6.07 13.98,6.76 13.18,7.49 12.43,8.26 11.66,9.13 10.83,10.10 9.96,11.13 9.17,12.10 8.51,13.00 7.84,13.94 7.24,14.77 6.77,15.41 6.38,15.85 6.03,15.96 5.70,15.71 5.34,14.72 4.92,12.79 4.60,10.69 4.42,8.95 4.37,7.63 4.38,6.77 4.43,6.15 4.69,5.64 5.19,5.22 6.22,4.81 7.87,4.40 9.67,4.09 11.16,3.87 12.16,3.75 12.81,3.77 13.07,4.05 12.99,4.83 12.73,5.98 12.31,7.33 11.86,8.66 11.52,9.62 11.29,10.28 11.16,10.74 10.95,11.12 10.57,11.52 9.69,11.91 8.44,12.22 7.44,12.43 6.75,12.55 6.32,12.48 6.05,12.18 5.80,11.25 5.58,9.93 5.36,8.75 5.25,7.83 5.27,7.28 5.55,6.89 6.11,6.53 6.78,6.25 7.59,6.05 8.49,5.89 9.21,5.76 9.61,5.91 9.74,6.40 9.77,7.12 9.74,8.05 9.59,8.83 9.19,9.18 8.57,9.19 8.00,9.10 7.55,9.01 7.17,8.92 6.96,8.82 6.96,8.38 7.00,8.00 " fill="none" stroke="#1d1d1d" stroke-width="4" stroke-dasharray="none" stroke-dashoffset="none" stroke-linejoin="round" stroke-linecap="round" pointer-events="none"/></g></g><text font-size="48px" font-family="Caveat Brush" font-weight="normal" line-height="48px" letter-spacing="-0.03em" text-align="center" dominant-baseline="mathematical" alignment-baseline="mathematical" text-anchor="middle" fill="#1d1d1d" transform="translate(851.29, 224.57) rotate(0.00, 79.00, 53.00)"><tspan y="24px" x="79">Indústria
</tspan><tspan y="72px" x="79">
cultural
</tspan></text><text font-size="48px" font-family="Caveat Brush" font-weight="normal" line-height="48px" letter-spacing="-0.03em" text-align="left" dominant-baseline="mathematical" alignment-baseline="mathematical" text-anchor="start" fill="#1d1d1d" transform="translate(78.41, 34.16) rotate(0.00, 199.00, 29.00)"><tspan y="24px" x="4">O folclore e a cultura pop
</tspan></text><g id="a3ec3628-04a8-4881-0894-1d4eda7cc652_svg" class="tl-centered-g" transform="translate(933.38, 110.42) rotate(0.00, 30.42, 57.64)"><defs><mask id="a3ec3628-04a8-4881-0894-1d4eda7cc652_clip"><rect x="-100" y="-100" width="260.83" height="315.28" fill="white"/><rect x="12.96" y="48.34" width="0" height="0" rx="4" ry="4" fill="black" opacity="1"/></mask></defs><g pointer-events="none" opacity="1" mask=""><path d="M 0.85 115.29 A 114.84 114.84 0 0 1 60.84 0" fill="none" stroke="#1d1d1d" stroke-width="4.23" stroke-dasharray="none" stroke-dashoffset="none" stroke-linecap="round" stroke-linejoin="round" pointer-events="none"/><g><path d="M 44.84,0.1448098003432413 L 60.84,0 52.96,13.928243835122235" fill="none" stroke="#1d1d1d" stroke-width="4.23" stroke-linecap="round" stroke-linejoin="round" pointer-events="none"/></g></g></g><text font-size="48px" font-family="Caveat Brush" font-weight="normal" line-height="48px" letter-spacing="-0.03em" text-align="left" dominant-baseline="mathematical" alignment-baseline="mathematical" text-anchor="start" fill="#1d1d1d" transform="translate(1019.62, 78.92) rotate(0.00, 146.00, 29.00)"><tspan y="24px" x="4">Cultura de massas
</tspan></text><g id="5739bfb9-7d49-4e48-2d96-105b4502c981_svg" class="tl-centered-g" transform="translate(1011.26, 75.87) rotate(0.00, 152.94, 35.64)"><g pointer-events="none" stroke="#1d1d1d" stroke-width="4.23" stroke-linecap="round"><line x1="2.11" y1="2.11" x2="303.77" y2="2.11" stroke-dasharray="none" stroke-dashoffset="none"/><line x1="303.77" y1="2.11" x2="303.77" y2="69.16" stroke-dasharray="none" stroke-dashoffset="none"/><line x1="303.77" y1="69.16" x2="2.11" y2="69.16" stroke-dasharray="none" stroke-dashoffset="none"/><line x1="2.11" y1="69.16" x2="2.11" y2="2.11" stroke-dasharray="none" stroke-dashoffset="none"/></g></g><g id="2337ed4f-a728-472b-3a66-123604ea3f91_svg" class="tl-centered-g" transform="translate(1127.70, 163.80) rotate(0.00, 0.50, 83.50)"><defs><mask id="2337ed4f-a728-472b-3a66-123604ea3f91_clip"><rect x="-100" y="-100" width="201" height="367" fill="white"/><rect x="0" y="83.5" width="0" height="0" rx="4" ry="4" fill="black" opacity="1"/></mask></defs><g pointer-events="none" opacity="1" mask=""><path d="M0,0L0,167" fill="#1d1d1d" stroke="#1d1d1d" stroke-width="4.23" stroke-dasharray="none" stroke-dashoffset="none" stroke-linecap="round" stroke-linejoin="round" pointer-events="stroke"/></g></g><g id="5b91d833-4587-482d-0ef1-590dff33a3cc_svg" class="tl-centered-g" transform="translate(1189.18, 163.80) rotate(0.00, 0.50, 83.50)"><defs><mask id="5b91d833-4587-482d-0ef1-590dff33a3cc_clip"><rect x="-100" y="-100" width="201" height="367" fill="white"/><rect x="0" y="83.5" width="0" height="0" rx="4" ry="4" fill="black" opacity="1"/></mask></defs><g pointer-events="none" opacity="1" mask=""><path d="M0,0L0,167" fill="#1d1d1d" stroke="#1d1d1d" stroke-width="4.23" stroke-dasharray="none" stroke-dashoffset="none" stroke-linecap="round" stroke-linejoin="round" pointer-events="stroke"/></g></g><g id="363c4d8e-1e5e-44ce-2c06-72ba7d5d8898_svg" class="tl-centered-g" transform="translate(1129.07, 163.80) rotate(0.00, 30.05, 0.50)"><defs><mask id="363c4d8e-1e5e-44ce-2c06-72ba7d5d8898_clip"><rect x="-100" y="-100" width="260.11" height="201" fill="white"/><rect x="30.05" y="0" width="0" height="0" rx="2" ry="2" fill="black" opacity="1"/></mask></defs><g pointer-events="none" opacity="1" mask=""><path d="M60.11,0L0,0" fill="#1d1d1d" stroke="#1d1d1d" stroke-width="4.23" stroke-dasharray="none" stroke-dashoffset="none" stroke-linecap="round" stroke-linejoin="round" pointer-events="stroke"/></g></g><g id="1567022c-7477-44f3-3389-eca7e07bfd82_svg" class="tl-centered-g" transform="translate(1095.56, 330.80) rotate(0.00, 16.07, 0.50)"><defs><mask id="1567022c-7477-44f3-3389-eca7e07bfd82_clip"><rect x="-100" y="-100" width="232.14" height="201" fill="white"/><rect x="16.07" y="0" width="0" height="0" rx="2" ry="2" fill="black" opacity="1"/></mask></defs><g pointer-events="none" opacity="1" mask=""><path d="M0,0L32.14,0" fill="#1d1d1d" stroke="#1d1d1d" stroke-width="4.23" stroke-dasharray="none" stroke-dashoffset="none" stroke-linecap="round" stroke-linejoin="round" pointer-events="stroke"/></g></g><g id="49058e7a-e7e8-4b8c-14e9-563082c0ba5d_svg" class="tl-centered-g" transform="translate(1188.51, 330.80) rotate(0.00, 16.07, 0.50)"><defs><mask id="49058e7a-e7e8-4b8c-14e9-563082c0ba5d_clip"><rect x="-100" y="-100" width="232.14" height="201" fill="white"/><rect x="16.07" y="0" width="0" height="0" rx="2" ry="2" fill="black" opacity="1"/></mask></defs><g pointer-events="none" opacity="1" mask=""><path d="M0,0L32.14,0" fill="#1d1d1d" stroke="#1d1d1d" stroke-width="4.23" stroke-dasharray="none" stroke-dashoffset="none" stroke-linecap="round" stroke-linejoin="round" pointer-events="stroke"/></g></g><g id="2abd5092-74b9-41d0-0b47-b940661fceaa_svg" class="tl-centered-g" transform="translate(1157.18, 330.80) rotate(0.00, 31.73, 31.73)"><defs><mask id="2abd5092-74b9-41d0-0b47-b940661fceaa_clip"><rect x="-100" y="-100" width="263.47" height="263.47" fill="white"/><rect x="31.73" y="31.73" width="0" height="0" rx="2.80" ry="2.80" fill="black" opacity="1"/></mask></defs><g pointer-events="none" opacity="1" mask=""><path d="M0,63.47L63.47,0" fill="#1d1d1d" stroke="#1d1d1d" stroke-width="4.23" stroke-dasharray="none" stroke-dashoffset="none" stroke-linecap="round" stroke-linejoin="round" pointer-events="stroke"/></g></g><g id="588cd3c3-8836-4b82-0b76-59f8132311d4_svg" class="tl-centered-g" transform="translate(1094.21, 331.30) rotate(0.00, 31.48, 31.48)"><defs><mask id="588cd3c3-8836-4b82-0b76-59f8132311d4_clip"><rect x="-100" y="-100" width="262.97" height="262.97" fill="white"/><rect x="31.48" y="31.48" width="0" height="0" rx="2.78" ry="2.78" fill="black" opacity="1"/></mask></defs><g pointer-events="none" opacity="1" mask=""><path d="M62.97,62.97L0,0" fill="#1d1d1d" stroke="#1d1d1d" stroke-width="4.23" stroke-dasharray="none" stroke-dashoffset="none" stroke-linecap="round" stroke-linejoin="round" pointer-events="stroke"/></g></g><text font-size="48px" font-family="Caveat Brush" font-weight="normal" line-height="48px" letter-spacing="-0.03em" text-align="center" dominant-baseline="mathematical" alignment-baseline="mathematical" text-anchor="middle" fill="#1d1d1d" transform="translate(1060.80, 433.87) rotate(0.00, 98.50, 53.00)"><tspan y="24px" x="98.5">Apropriação
</tspan><tspan y="72px" x="98.5">
cultural
</tspan></text><g id="0a0ac5fa-a39e-4675-2eb4-1694de2655b7_svg" class="tl-centered-g" transform="translate(1044.32, 413.13) rotate(0.00, 37.87, 23.14)"><g opacity="1"><path d="M75.73,12.62 Q71.02,9.33 67.13,7.24 T55.92,4.00 41.72,3.39 27.76,6.58 16.04,13.29 9.10,22.40 6.54,36.87 6.31,46.28 " fill="none" stroke="none" stroke-width="4" stroke-linejoin="round" stroke-linecap="round" pointer-events="none"/><path d="M75.73,12.62 Q71.02,9.33 67.13,7.24 T55.92,4.00 41.72,3.39 27.76,6.58 16.04,13.29 9.10,22.40 6.54,36.87 6.31,46.28 " fill="none" stroke="#1d1d1d" stroke-width="4" stroke-dasharray="none" stroke-dashoffset="none" stroke-linejoin="round" stroke-linecap="round" pointer-events="none"/></g></g><g id="005d1a0c-c197-4b95-16e7-fb0b8d7ca98f_svg" class="tl-centered-g" transform="translate(1030.64, 449.95) rotate(0.00, 15.25, 37.87)"><g opacity="1"><path d="M30.50,0.00 Q24.85,2.82 21.64,4.55 T15.25,8.63 9.37,15.36 5.41,26.14 4.16,39.15 5.59,51.29 9.44,61.05 21.19,70.51 30.50,75.73 " fill="none" stroke="none" stroke-width="4" stroke-linejoin="round" stroke-linecap="round" pointer-events="none"/><path d="M30.50,0.00 Q24.85,2.82 21.64,4.55 T15.25,8.63 9.37,15.36 5.41,26.14 4.16,39.15 5.59,51.29 9.44,61.05 21.19,70.51 30.50,75.73 " fill="none" stroke="#1d1d1d" stroke-width="4" stroke-dasharray="none" stroke-dashoffset="none" stroke-linejoin="round" stroke-linecap="round" pointer-events="none"/></g></g><g id="17a81fc5-0f9a-4c0a-2329-cdbb06559f78_svg" class="tl-centered-g" transform="translate(1061.15, 522.53) rotate(0.00, 32.08, 24.20)"><g opacity="1"><path d="M0.00,0.00 Q0.00,4.24 0.00,6.35 T0.71,12.69 3.45,21.60 12.73,31.24 27.75,38.21 49.84,39.58 64.16,38.92 " fill="none" stroke="none" stroke-width="4" stroke-linejoin="round" stroke-linecap="round" pointer-events="none"/><path d="M0.00,0.00 Q0.00,4.24 0.00,6.35 T0.71,12.69 3.45,21.60 12.73,31.24 27.75,38.21 49.84,39.58 64.16,38.92 " fill="none" stroke="#1d1d1d" stroke-width="4" stroke-dasharray="none" stroke-dashoffset="none" stroke-linejoin="round" stroke-linecap="round" pointer-events="none"/></g></g><g id="15273c73-f8b1-4e2b-06e3-aabab093e5b8_svg" class="tl-centered-g" transform="translate(1119.00, 546.72) rotate(0.00, 40.49, 12.10)"><g opacity="1"><path d="M0.00,5.26 Q1.41,8.55 3.69,10.64 T8.86,14.59 19.25,18.18 33.70,20.40 47.10,19.74 59.21,15.62 72.93,6.32 80.99,0.00 " fill="none" stroke="none" stroke-width="4" stroke-linejoin="round" stroke-linecap="round" pointer-events="none"/><path d="M0.00,5.26 Q1.41,8.55 3.69,10.64 T8.86,14.59 19.25,18.18 33.70,20.40 47.10,19.74 59.21,15.62 72.93,6.32 80.99,0.00 " fill="none" stroke="#1d1d1d" stroke-width="4" stroke-dasharray="none" stroke-dashoffset="none" stroke-linejoin="round" stroke-linecap="round" pointer-events="none"/></g></g><g id="e4684874-3350-4fc3-17b4-13a92c1d5a10_svg" class="tl-centered-g" transform="translate(1195.79, 501.49) rotate(0.00, 37.34, 26.30)"><g opacity="1"><path d="M0.00,41.02 Q4.24,43.37 8.00,44.97 T17.13,47.91 28.05,49.77 39.51,49.38 51.48,44.94 61.39,35.65 67.10,24.17 69.73,9.21 70.48,0.00 " fill="none" stroke="none" stroke-width="4" stroke-linejoin="round" stroke-linecap="round" pointer-events="none"/><path d="M0.00,41.02 Q4.24,43.37 8.00,44.97 T17.13,47.91 28.05,49.77 39.51,49.38 51.48,44.94 61.39,35.65 67.10,24.17 69.73,9.21 70.48,0.00 " fill="none" stroke="#1d1d1d" stroke-width="4" stroke-dasharray="none" stroke-dashoffset="none" stroke-linejoin="round" stroke-linecap="round" pointer-events="none"/></g></g><g id="726032ff-3660-4a59-19a8-1041a4ca5b05_svg" class="tl-centered-g" transform="translate(1253.64, 431.01) rotate(0.00, 16.83, 35.24)"><g opacity="1"><path d="M0.00,70.48 Q5.65,68.13 10.03,66.06 T18.72,57.69 23.76,43.41 23.48,29.16 20.74,18.47 12.14,7.03 5.26,0.00 " fill="none" stroke="none" stroke-width="4" stroke-linejoin="round" stroke-linecap="round" pointer-events="none"/><path d="M0.00,70.48 Q5.65,68.13 10.03,66.06 T18.72,57.69 23.76,43.41 23.48,29.16 20.74,18.47 12.14,7.03 5.26,0.00 " fill="none" stroke="#1d1d1d" stroke-width="4" stroke-dasharray="none" stroke-dashoffset="none" stroke-linejoin="round" stroke-linecap="round" pointer-events="none"/></g></g><g id="743743f9-cbea-43f5-1cdb-7edd91502b31_svg" class="tl-centered-g" transform="translate(1187.37, 404.72) rotate(0.00, 36.81, 17.88)"><g opacity="1"><path d="M73.63,35.76 Q73.63,32.47 73.40,30.38 T70.44,24.32 61.04,15.79 48.08,9.43 35.51,7.56 14.61,11.11 0.00,14.72 " fill="none" stroke="none" stroke-width="4" stroke-linejoin="round" stroke-linecap="round" pointer-events="none"/><path d="M73.63,35.76 Q73.63,32.47 73.40,30.38 T70.44,24.32 61.04,15.79 48.08,9.43 35.51,7.56 14.61,11.11 0.00,14.72 " fill="none" stroke="#1d1d1d" stroke-width="4" stroke-dasharray="none" stroke-dashoffset="none" stroke-linejoin="round" stroke-linecap="round" pointer-events="none"/></g></g><g id="3c058e59-766a-47a2-075f-283c05e19708_svg" class="tl-centered-g" transform="translate(1105.33, 407.87) rotate(0.00, 48.91, 13.68)"><g opacity="1"><path d="M0.00,27.35 Q2.35,23.59 7.71,19.72 T22.85,12.31 41.81,7.74 58.64,7.81 72.64,10.90 88.41,17.50 97.82,22.09 " fill="none" stroke="none" stroke-width="4" stroke-linejoin="round" stroke-linecap="round" pointer-events="none"/><path d="M0.00,27.35 Q2.35,23.59 7.71,19.72 T22.85,12.31 41.81,7.74 58.64,7.81 72.64,10.90 88.41,17.50 97.82,22.09 " fill="none" stroke="#1d1d1d" stroke-width="4" stroke-dasharray="none" stroke-dashoffset="none" stroke-linejoin="round" stroke-linecap="round" pointer-events="none"/></g></g><text font-size="48px" font-family="Caveat Brush" font-weight="normal" line-height="48px" letter-spacing="-0.03em" text-align="center" dominant-baseline="mathematical" alignment-baseline="mathematical" text-anchor="middle" fill="#1d1d1d" transform="translate(502.51, 429.00) rotate(0.00, 73.00, 53.00)"><tspan y="24px" x="73">Minorias
</tspan><tspan y="72px" x="73">
sociais
</tspan></text><text font-size="48px" font-family="Caveat Brush" font-weight="normal" line-height="48px" letter-spacing="-0.03em" text-align="left" dominant-baseline="mathematical" alignment-baseline="mathematical" text-anchor="start" fill="#1d1d1d" transform="translate(688.74, 413.11) rotate(0.00, 126.50, 77.00)"><tspan y="24px" x="4">- Silenciamento 
 
</tspan><tspan y="72px" x="4">
- Invisibilidade
</tspan></text><g id="f467f8a7-8ec1-4898-1370-ddb2e344d4db_svg" class="tl-centered-g" transform="translate(669.60, 403.55) rotate(0.00, 13.22, 0.50)"><defs><mask id="f467f8a7-8ec1-4898-1370-ddb2e344d4db_clip"><rect x="-100" y="-100" width="226.45" height="201" fill="white"/><rect x="13.22" y="0" width="0" height="0" rx="2" ry="2" fill="black" opacity="1"/></mask></defs><g pointer-events="none" opacity="1" mask=""><path d="M26.45,0L0,0" fill="#1d1d1d" stroke="#1d1d1d" stroke-width="4.23" stroke-dasharray="none" stroke-dashoffset="none" stroke-linecap="round" stroke-linejoin="round" pointer-events="stroke"/></g></g><g id="26be440f-ce42-4e7f-2455-db0dbc740044_svg" class="tl-centered-g" transform="translate(669.60, 403.55) rotate(0.00, 0.50, 39.44)"><defs><mask id="26be440f-ce42-4e7f-2455-db0dbc740044_clip"><rect x="-100" y="-100" width="201" height="278.87" fill="white"/><rect x="0" y="39.43" width="0" height="0" rx="2.46" ry="2.46" fill="black" opacity="1"/></mask></defs><g pointer-events="none" opacity="1" mask=""><path d="M0,78.87L0,0" fill="#1d1d1d" stroke="#1d1d1d" stroke-width="4.23" stroke-dasharray="none" stroke-dashoffset="none" stroke-linecap="round" stroke-linejoin="round" pointer-events="stroke"/></g></g><g id="b19ebe58-6fb0-4f17-3e34-dc561715095b_svg" class="tl-centered-g" transform="translate(652.55, 482.42) rotate(0.00, 8.53, 4.92)"><defs><mask id="b19ebe58-6fb0-4f17-3e34-dc561715095b_clip"><rect x="-100" y="-100" width="217.05" height="209.84" fill="white"/><rect x="8.52" y="4.92" width="0" height="0" rx="2" ry="2" fill="black" opacity="1"/></mask></defs><g pointer-events="none" opacity="1" mask=""><path d="M17.05,0L0,9.84" fill="#1d1d1d" stroke="#1d1d1d" stroke-width="4.23" stroke-dasharray="none" stroke-dashoffset="none" stroke-linecap="round" stroke-linejoin="round" pointer-events="stroke"/></g></g><g id="537a45d4-7931-4851-2ef7-4ce99e3a66fa_svg" class="tl-centered-g" transform="translate(652.55, 492.26) rotate(0.00, 9.11, 5.25)"><defs><mask id="537a45d4-7931-4851-2ef7-4ce99e3a66fa_clip"><rect x="-100" y="-100" width="218.21" height="210.51" fill="white"/><rect x="9.10" y="5.25" width="0" height="0" rx="2" ry="2" fill="black" opacity="1"/></mask></defs><g pointer-events="none" opacity="1" mask=""><path d="M18.21,10.51L0,0" fill="#1d1d1d" stroke="#1d1d1d" stroke-width="4.23" stroke-dasharray="none" stroke-dashoffset="none" stroke-linecap="round" stroke-linejoin="round" pointer-events="stroke"/></g></g><g id="79286ea7-9406-45cc-2d47-96dd379dde9f_svg" class="tl-centered-g" transform="translate(669.60, 501.96) rotate(0.00, 0.50, 39.44)"><defs><mask id="79286ea7-9406-45cc-2d47-96dd379dde9f_clip"><rect x="-100" y="-100" width="201" height="278.87" fill="white"/><rect x="0" y="39.43" width="0" height="0" rx="2.46" ry="2.46" fill="black" opacity="1"/></mask></defs><g pointer-events="none" opacity="1" mask=""><path d="M0,78.87L0,0" fill="#1d1d1d" stroke="#1d1d1d" stroke-width="4.23" stroke-dasharray="none" stroke-dashoffset="none" stroke-linecap="round" stroke-linejoin="round" pointer-events="stroke"/></g></g><g id="0c629521-a7c4-4f10-272e-7d4a94de040e_svg" class="tl-centered-g" transform="translate(669.60, 582.37) rotate(0.00, 13.22, 0.50)"><defs><mask id="0c629521-a7c4-4f10-272e-7d4a94de040e_clip"><rect x="-100" y="-100" width="226.45" height="201" fill="white"/><rect x="13.22" y="0" width="0" height="0" rx="2" ry="2" fill="black" opacity="1"/></mask></defs><g pointer-events="none" opacity="1" mask=""><path d="M26.45,0L0,0" fill="#1d1d1d" stroke="#1d1d1d" stroke-width="4.23" stroke-dasharray="none" stroke-dashoffset="none" stroke-linecap="round" stroke-linejoin="round" pointer-events="stroke"/></g></g><g id="2b0125a8-4689-406a-3254-f364497d2118_svg" class="tl-centered-g" transform="translate(954.81, 445.48) rotate(0.00, 39.34, 22.71)"><defs><mask id="2b0125a8-4689-406a-3254-f364497d2118_clip"><rect x="-100" y="-100" width="278.68" height="245.43" fill="white"/><rect x="39.34" y="22.71" width="0" height="0" rx="2.83" ry="2.83" fill="black" opacity="1"/></mask></defs><g pointer-events="none" opacity="1" mask=""><path d="M78.68,45.43L0,0" fill="#1d1d1d" stroke="#1d1d1d" stroke-width="4.23" stroke-dasharray="none" stroke-dashoffset="none" stroke-linecap="round" stroke-linejoin="round" pointer-events="stroke"/></g></g><g id="a0ca9011-e9b4-4ce4-3522-ed81f1b219cb_svg" class="tl-centered-g" transform="translate(952.94, 490.91) rotate(0.00, 40.27, 23.25)"><defs><mask id="a0ca9011-e9b4-4ce4-3522-ed81f1b219cb_clip"><rect x="-100" y="-100" width="280.55" height="246.5" fill="white"/><rect x="40.27" y="23.25" width="0" height="0" rx="2.90" ry="2.90" fill="black" opacity="1"/></mask></defs><g pointer-events="none" opacity="1" mask=""><path d="M80.55,0L0,46.5" fill="#1d1d1d" stroke="#1d1d1d" stroke-width="4.23" stroke-dasharray="none" stroke-dashoffset="none" stroke-linecap="round" stroke-linejoin="round" pointer-events="stroke"/></g></g><g id="d68d5ea1-e002-462b-3950-f3902414b361_svg" class="tl-centered-g" transform="translate(528.30, 534.54) rotate(0.00, 49.44, 4.74)"><g opacity="1"><path d="M0.00,1.05 Q10.36,1.05 19.81,1.05 T38.48,1.05 55.62,1.05 69.10,1.05 78.19,1.05 85.09,1.05 90.55,1.05 94.04,1.05 95.97,1.05 96.33,1.05 96.06,1.05 95.91,1.05 95.82,1.05 90.72,1.52 77.78,2.72 60.51,4.33 40.85,6.16 24.92,7.64 16.12,8.46 11.26,8.91 8.58,9.16 11.98,9.24 23.62,9.17 39.82,9.01 58.54,8.80 80.46,8.56 92.57,8.42 " fill="none" stroke="none" stroke-width="4" stroke-linejoin="round" stroke-linecap="round" pointer-events="none"/><path d="M0.00,1.05 Q10.36,1.05 19.81,1.05 T38.48,1.05 55.62,1.05 69.10,1.05 78.19,1.05 85.09,1.05 90.55,1.05 94.04,1.05 95.97,1.05 96.33,1.05 96.06,1.05 95.91,1.05 95.82,1.05 90.72,1.52 77.78,2.72 60.51,4.33 40.85,6.16 24.92,7.64 16.12,8.46 11.26,8.91 8.58,9.16 11.98,9.24 23.62,9.17 39.82,9.01 58.54,8.80 80.46,8.56 92.57,8.42 " fill="none" stroke="#1d1d1d" stroke-width="4" stroke-dasharray="none" stroke-dashoffset="none" stroke-linejoin="round" stroke-linecap="round" pointer-events="none"/></g></g><g id="dc845bbf-4a12-422a-0f5c-599c6a7a0598_svg" class="tl-centered-g" transform="translate(86.98, 297.26) rotate(0.00, 10.51, 56.86)"><g opacity="1"><path d="M14.83,0.00 Q10.96,3.32 8.51,7.56 T4.70,16.62 3.98,27.16 6.07,37.68 9.71,47.10 13.94,58.10 16.83,70.82 17.04,83.65 15.50,95.17 12.24,106.94 9.89,113.72 " fill="none" stroke="none" stroke-width="4" stroke-linejoin="round" stroke-linecap="round" pointer-events="none"/><path d="M14.83,0.00 Q10.96,3.32 8.51,7.56 T4.70,16.62 3.98,27.16 6.07,37.68 9.71,47.10 13.94,58.10 16.83,70.82 17.04,83.65 15.50,95.17 12.24,106.94 9.89,113.72 " fill="none" stroke="#4263eb" stroke-width="4" stroke-dasharray="none" stroke-dashoffset="none" stroke-linejoin="round" stroke-linecap="round" pointer-events="none"/></g></g><g id="5c1d101a-7cb1-4ae8-302f-f6278dfccea8_svg" class="tl-centered-g" transform="translate(89.45, 396.15) rotate(0.00, 11.74, 13.60)"><g opacity="1"><path d="M0.00,0.00 Q0.55,4.43 0.71,6.48 T1.22,12.15 1.78,18.33 2.09,22.02 2.81,22.68 5.15,19.99 9.76,14.92 18.07,7.88 23.49,3.71 " fill="none" stroke="none" stroke-width="4" stroke-linejoin="round" stroke-linecap="round" pointer-events="none"/><path d="M0.00,0.00 Q0.55,4.43 0.71,6.48 T1.22,12.15 1.78,18.33 2.09,22.02 2.81,22.68 5.15,19.99 9.76,14.92 18.07,7.88 23.49,3.71 " fill="none" stroke="#4263eb" stroke-width="4" stroke-dasharray="none" stroke-dashoffset="none" stroke-linejoin="round" stroke-linecap="round" pointer-events="none"/></g></g><text font-size="48px" font-family="Caveat Brush" font-weight="normal" line-height="48px" letter-spacing="-0.03em" text-align="left" dominant-baseline="mathematical" alignment-baseline="mathematical" text-anchor="start" fill="#4263eb" transform="translate(40.41, 443.08) rotate(0.00, 80.50, 29.00)"><tspan y="24px" x="4">Oralidade
</tspan></text><g id="0e8315c3-910b-4211-1a48-737f27269a2d_svg" class="tl-centered-g" transform="translate(19.99, 444.78) rotate(0.00, 27.50, 34.26)"><g opacity="1"><path d="M22.54,0.00 Q15.28,6.05 12.47,9.13 T7.49,16.74 4.75,26.80 5.85,38.41 10.29,49.06 16.78,56.96 25.61,61.53 35.33,62.23 47.47,58.35 54.99,54.99 " fill="none" stroke="none" stroke-width="4" stroke-linejoin="round" stroke-linecap="round" pointer-events="none"/><path d="M22.54,0.00 Q15.28,6.05 12.47,9.13 T7.49,16.74 4.75,26.80 5.85,38.41 10.29,49.06 16.78,56.96 25.61,61.53 35.33,62.23 47.47,58.35 54.99,54.99 " fill="none" stroke="#4263eb" stroke-width="4" stroke-dasharray="none" stroke-dashoffset="none" stroke-linejoin="round" stroke-linecap="round" pointer-events="none"/></g></g><g id="1e200ac4-a9c6-4c7b-3ad1-8db72d67ed35_svg" class="tl-centered-g" transform="translate(74.08, 494.36) rotate(0.00, 27.50, 8.56)"><g opacity="1"><path d="M0.00,3.61 Q4.84,8.05 7.99,10.08 T15.31,13.24 24.19,14.78 33.34,14.42 41.61,11.60 50.23,4.78 54.99,0.00 " fill="none" stroke="none" stroke-width="4" stroke-linejoin="round" stroke-linecap="round" pointer-events="none"/><path d="M0.00,3.61 Q4.84,8.05 7.99,10.08 T15.31,13.24 24.19,14.78 33.34,14.42 41.61,11.60 50.23,4.78 54.99,0.00 " fill="none" stroke="#4263eb" stroke-width="4" stroke-dasharray="none" stroke-dashoffset="none" stroke-linejoin="round" stroke-linecap="round" pointer-events="none"/></g></g><g id="41a1945c-d76b-4707-0561-f21ebe642482_svg" class="tl-centered-g" transform="translate(128.17, 493.46) rotate(0.00, 26.59, 10.82)"><g opacity="1"><path d="M0.00,0.00 Q2.02,2.82 3.58,4.81 T8.03,9.52 15.13,14.34 24.29,17.00 33.59,16.45 45.57,11.28 53.19,7.21 " fill="none" stroke="none" stroke-width="4" stroke-linejoin="round" stroke-linecap="round" pointer-events="none"/><path d="M0.00,0.00 Q2.02,2.82 3.58,4.81 T8.03,9.52 15.13,14.34 24.29,17.00 33.59,16.45 45.57,11.28 53.19,7.21 " fill="none" stroke="#4263eb" stroke-width="4" stroke-dasharray="none" stroke-dashoffset="none" stroke-linejoin="round" stroke-linecap="round" pointer-events="none"/></g></g><g id="20c493ca-a6ed-4c03-1317-8da098bf1323_svg" class="tl-centered-g" transform="translate(176.86, 442.07) rotate(0.00, 24.79, 32.91)"><g opacity="1"><path d="M1.80,52.29 Q4.22,55.92 6.50,57.93 T12.27,61.26 19.48,62.49 27.10,60.75 34.34,56.36 40.35,49.29 43.88,39.34 43.00,27.99 37.68,17.48 29.89,9.86 12.85,4.86 0.00,2.71 " fill="none" stroke="none" stroke-width="4" stroke-linejoin="round" stroke-linecap="round" pointer-events="none"/><path d="M1.80,52.29 Q4.22,55.92 6.50,57.93 T12.27,61.26 19.48,62.49 27.10,60.75 34.34,56.36 40.35,49.29 43.88,39.34 43.00,27.99 37.68,17.48 29.89,9.86 12.85,4.86 0.00,2.71 " fill="none" stroke="#4263eb" stroke-width="4" stroke-dasharray="none" stroke-dashoffset="none" stroke-linejoin="round" stroke-linecap="round" pointer-events="none"/></g></g><g id="4dbacf86-49ef-4ace-2930-32973388368a_svg" class="tl-centered-g" transform="translate(116.45, 428.55) rotate(0.00, 29.75, 9.46)"><g opacity="1"><path d="M59.50,18.93 Q58.29,15.70 55.74,13.00 T47.34,7.99 36.24,4.61 26.48,3.56 18.26,4.38 7.28,8.01 0.00,10.82 " fill="none" stroke="none" stroke-width="4" stroke-linejoin="round" stroke-linecap="round" pointer-events="none"/><path d="M59.50,18.93 Q58.29,15.70 55.74,13.00 T47.34,7.99 36.24,4.61 26.48,3.56 18.26,4.38 7.28,8.01 0.00,10.82 " fill="none" stroke="#4263eb" stroke-width="4" stroke-dasharray="none" stroke-dashoffset="none" stroke-linejoin="round" stroke-linecap="round" pointer-events="none"/></g></g><g id="1fd645b3-8e06-4b40-33bb-725e50a63d76_svg" class="tl-centered-g" transform="translate(72.28, 429.45) rotate(0.00, 20.73, 5.86)"><g opacity="1"><path d="M41.47,11.72 Q37.43,8.09 33.70,6.48 T25.68,3.78 17.21,2.49 10.11,3.19 3.60,6.56 0.00,9.02 " fill="none" stroke="none" stroke-width="4" stroke-linejoin="round" stroke-linecap="round" pointer-events="none"/><path d="M41.47,11.72 Q37.43,8.09 33.70,6.48 T25.68,3.78 17.21,2.49 10.11,3.19 3.60,6.56 0.00,9.02 " fill="none" stroke="#4263eb" stroke-width="4" stroke-dasharray="none" stroke-dashoffset="none" stroke-linejoin="round" stroke-linecap="round" pointer-events="none"/></g></g><g id="7754717a-6f13-4d00-2a6c-8786d3fba380_svg" class="tl-centered-g" transform="translate(40.73, 432.16) rotate(0.00, 16.23, 8.12)"><g opacity="1"><path d="M32.45,5.41 Q26.40,2.99 22.71,2.32 T15.57,2.09 9.41,3.98 5.60,7.45 4.05,12.84 3.60,16.23 " fill="none" stroke="none" stroke-width="4" stroke-linejoin="round" stroke-linecap="round" pointer-events="none"/><path d="M32.45,5.41 Q26.40,2.99 22.71,2.32 T15.57,2.09 9.41,3.98 5.60,7.45 4.05,12.84 3.60,16.23 " fill="none" stroke="#4263eb" stroke-width="4" stroke-dasharray="none" stroke-dashoffset="none" stroke-linejoin="round" stroke-linecap="round" pointer-events="none"/></g></g><text font-size="48px" font-family="Caveat Brush" font-weight="normal" line-height="48px" letter-spacing="-0.03em" text-align="left" dominant-baseline="mathematical" alignment-baseline="mathematical" text-anchor="start" fill="#4263eb" transform="translate(1031.51, 16.00) rotate(0.00, 96.50, 29.00)"><tspan y="24px" x="4">Cultura pop
</tspan></text></svg>